<mxfile host="65bd71144e">
    <diagram id="VKd_f7iNRXUgarrdV2-t" name="第 1 页">
        <mxGraphModel dx="760" dy="466" grid="1" gridSize="10" guides="1" tooltips="1" connect="1" arrows="1" fold="1" page="1" pageScale="1" pageWidth="827" pageHeight="1169" math="0" shadow="0">
            <root>
                <mxCell id="0"/>
                <mxCell id="1" parent="0"/>
                <mxCell id="9" value="" style="edgeStyle=none;html=1;fontSize=23;" edge="1" parent="1" source="7" target="8">
                    <mxGeometry relative="1" as="geometry"/>
                </mxCell>
                <mxCell id="11" value="" style="edgeStyle=none;html=1;fontSize=23;" edge="1" parent="1" source="7" target="10">
                    <mxGeometry relative="1" as="geometry"/>
                </mxCell>
                <mxCell id="7" value="客户端&lt;br&gt;Request" style="shape=process;whiteSpace=wrap;html=1;backgroundOutline=1;fontSize=23;" vertex="1" parent="1">
                    <mxGeometry x="130" y="60" width="120" height="60" as="geometry"/>
                </mxCell>
                <mxCell id="16" value="" style="edgeStyle=none;html=1;fontSize=16;" edge="1" parent="1" source="8" target="15">
                    <mxGeometry relative="1" as="geometry"/>
                </mxCell>
                <mxCell id="8" value="物理服务器&lt;br style=&quot;font-size: 16px&quot;&gt;OS的计算机器&lt;br style=&quot;font-size: 16px&quot;&gt;Windows Linux Unix Mac" style="shape=process;whiteSpace=wrap;html=1;backgroundOutline=1;fontSize=16;" vertex="1" parent="1">
                    <mxGeometry x="560" y="60" width="240" height="60" as="geometry"/>
                </mxCell>
                <mxCell id="14" value="" style="edgeStyle=none;html=1;fontSize=12;" edge="1" parent="1" source="10" target="13">
                    <mxGeometry relative="1" as="geometry"/>
                </mxCell>
                <mxCell id="10" value="浏览器/前端axios/ajax&lt;br style=&quot;font-size: 12px;&quot;&gt;postman" style="ellipse;whiteSpace=wrap;html=1;fontSize=12;" vertex="1" parent="1">
                    <mxGeometry x="130" y="170" width="120" height="80" as="geometry"/>
                </mxCell>
                <mxCell id="12" value="HTTP协议&lt;br&gt;TCP/IP" style="text;strokeColor=none;fillColor=none;html=1;fontSize=24;fontStyle=1;verticalAlign=middle;align=center;" vertex="1" parent="1">
                    <mxGeometry x="350" y="110" width="100" height="40" as="geometry"/>
                </mxCell>
                <mxCell id="13" value="get/post/put/delete&lt;br&gt;http://www.xxx.com?id=1&lt;br&gt;Form表单&lt;br&gt;Cookies&lt;br&gt;请求头信息&lt;br&gt;Respest Header" style="rounded=1;whiteSpace=wrap;html=1;" vertex="1" parent="1">
                    <mxGeometry x="100" y="340" width="180" height="180" as="geometry"/>
                </mxCell>
                <mxCell id="18" value="" style="edgeStyle=none;html=1;fontSize=16;" edge="1" parent="1" source="15" target="17">
                    <mxGeometry relative="1" as="geometry"/>
                </mxCell>
                <mxCell id="15" value="Http 80&lt;br&gt;https 443&lt;br&gt;监测" style="ellipse;whiteSpace=wrap;html=1;fontSize=16;" vertex="1" parent="1">
                    <mxGeometry x="620" y="170" width="120" height="60" as="geometry"/>
                </mxCell>
                <mxCell id="21" value="" style="edgeStyle=none;html=1;fontSize=16;" edge="1" parent="1" source="17" target="20">
                    <mxGeometry relative="1" as="geometry"/>
                </mxCell>
                <mxCell id="17" value="Web服务器/软件&lt;br&gt;IIS/&lt;span style=&quot;font-family: &amp;#34;consolas&amp;#34; , &amp;#34;lucida console&amp;#34; , &amp;#34;courier new&amp;#34; , monospace ; font-size: 12px ; text-align: left ; background-color: rgb(255 , 255 , 255)&quot;&gt;/&lt;/span&gt;&lt;br&gt;Apache/Tomcat" style="rounded=1;whiteSpace=wrap;html=1;fontSize=16;fontColor=default;" vertex="1" parent="1">
                    <mxGeometry x="602.5" y="280" width="155" height="60" as="geometry"/>
                </mxCell>
                <mxCell id="19" value="Internet Information Service" style="text;strokeColor=none;fillColor=none;html=1;fontSize=24;fontStyle=1;verticalAlign=middle;align=center;" vertex="1" parent="1">
                    <mxGeometry x="250" y="650" width="380" height="40" as="geometry"/>
                </mxCell>
                <mxCell id="24" value="" style="edgeStyle=none;html=1;fontSize=16;" edge="1" parent="1" source="20" target="23">
                    <mxGeometry relative="1" as="geometry"/>
                </mxCell>
                <mxCell id="20" value="Process.DLL" style="whiteSpace=wrap;html=1;fontSize=16;rounded=1;" vertex="1" parent="1">
                    <mxGeometry x="620" y="390" width="120" height="50" as="geometry"/>
                </mxCell>
                <mxCell id="23" value="C#代码" style="rounded=1;whiteSpace=wrap;html=1;fontSize=16;" vertex="1" parent="1">
                    <mxGeometry x="620" y="515" width="120" height="55" as="geometry"/>
                </mxCell>
                <mxCell id="25" value="" style="shape=singleArrow;direction=west;whiteSpace=wrap;html=1;fontSize=16;" vertex="1" parent="1">
                    <mxGeometry x="290" y="220" width="270" height="60" as="geometry"/>
                </mxCell>
                <mxCell id="26" value="Response&lt;br&gt;响应&lt;br&gt;JSON/HTML/CSS/JS&lt;br&gt;BODY&lt;br&gt;&lt;font style=&quot;font-size: 16px&quot;&gt;&lt;br&gt;响应头 Response Header&lt;br&gt;服务器操作系统版本&lt;br&gt;Web服务器版本&lt;br&gt;应用程序版本&lt;/font&gt;" style="text;strokeColor=none;fillColor=none;html=1;fontSize=24;fontStyle=1;verticalAlign=middle;align=center;" vertex="1" parent="1">
                    <mxGeometry x="270" y="410" width="380" height="40" as="geometry"/>
                </mxCell>
                <mxCell id="28" value="" style="shape=image;verticalLabelPosition=bottom;labelBackgroundColor=#ffffff;verticalAlign=top;aspect=fixed;imageAspect=0;image=data:image/png,iVBORw0KGgoAAAANSUhEUgAAA30AAAECCAYAAABKYb6EAAAgAElEQVR4nOzdfXgU5bn48e/M7Owmu0ACNqgJGIK82AhFc6C0KA0iFJsWqVZqoQpWsRS0P9SD9IC0aA/Fipwq1sqxUo+AgudgrUgPvlMRSktBlGI5IihESCpEIRB2k915+/0xu2Gzmd1seJVwf67LS8juzjyzMxOee+7nuR+luFt3ByGEEEIIIYQQbZJ6uhsghBBCCCGEEOLkkaBPCCGEEEIIIdow3+nasaKAz6eh+3yoqsSeQgghhBBCCHEynJagT1UVgrk5EuwJIYQQQgghxEl2yoM+BQgGc1EV5VTvWgghhBBCCCHOOqc81eb3+yTgE0IIIYQQQohT5JQHfbqun+pdCiGEEEIIIcRZ65QHfTKPTwghhBBCCCFOHYnAhBBCCCGEEKINk6BPCCGEEEIIIdowCfqEEEIIIYQQog2ToE8IIYQQQggh2jAJ+oQQQgghhBCiDZOgTwghhBBCCCHaMAn6hBBCCCGEEKINk6BPCCGEEEIIIdowCfqEEEIIIYQQog3zncqdbTZVOFh/KncpxGk1pGPu6W6CEOIkUB0HBQVHAfsk70sBVMf9s6V4v8cPFJs2PqBSU4mked+xOpXHK06NxnOKg62c4AsmRTbX8Nkqq/vbcSi2nJN2f4uzwykN+oQQQpw8PqCD4/YeDioKTsrrmgN5zX56VAOKZ2dCc6C77VBgO4BDtabysaq0qvOvOg758T/XKuk/29Fx6G3aBByoVhU+1hSiWXZIz3Ggu2nRHqhTFN7XFOpOUmf238MGlxkWDwZ1/jdwcv8p7WXZPH44SpWq8P28nGavD42Z3BkxaR8/94/m6jyXc2LbdG/E4Gsxi4eCflYEtBO67ZNFAQotm/MdCNoOn2gKu1WFWCuviXzbQVXgiKIQy/C6F8uBQ2leDDgOpZZDvu3wqQofq2ra97bYNmj1cU2sN7k+arI0x8dvc/VWfba1OtgOKw41AKfnYagfaOek/913LN/fifJF0+axuvT397CYxR0Ro7H9J+P+FmeH03LVSPZDtHVvSkZbnAY31huMbzABuDI/t9lT4+62wxOHG9J+3qvzd1XMYkK9wRfsph2mHT6VX+Xq/J8vu1kC341a/KjeAOBb+TkcSelg5ThwW73ByKjZ5OeHFViU6+cPAS1toHiO7XBXxGCQYZG8VVtRGJ6X06YzC70sm5lhAxSFFwMadYpCtdaGDzhLXzRt7orE6Gk1vW4PKAr/GdR51Z9d4JrokCvAjHYB1uvNr/cnD0fplCag2KkpTOjQtCOvAFdHTSbVG+QkfcxWFF70ayzM9TW7P7z0NG0er4uiAj8P6az2SyCQzuUxk5+FjbSv/zLk5+Usr4lT6SLT5p5wDFuBFQGNI3J/i+MgvyGEEKINKLIdxjSYGd/T3nbDps9UhUqteee1yiPL8OWYhQH8T8DHXk2lg2MzLGbT07SZeyTGrR0CfNJCdqLAdripIX2HC2DekSh9TJt3dI0NPhVDUbjItLgyZvHjSAzF8X66fZ7t8JvDDZzjwEeayht+jUMKnO/AZTEr4z7bgmsaTFRgSUDjdyc5W3My5dsO34qZdLLhkeDxH0cvy6HQcvhjwMdHmoIPGGDYDDAsZoRjhBU/f9Yzd/JVx+GueoNMV7eCm12PAe95bM/rnrop/nDmY03hT7rGAVWhq+3wjQaTb0dNzrVtZrQLZMjJuwUZ7qg3pDBDljrEv8wqVWGfx+++zz6ncdS1URMFWJKj85Rk98RxkitICCHOcArw/yIG/hbel+j4vKFrPJZlx/oPOT5+6VOThrVp/HcO/OfhKBdaNiNjFk+00Bm5LSWj4SXgOM2zFQGNP+sW94ZjTKw3eDGgNRmCpTkw+0iUcxx4y68xO+RvMvxu4VnQSeoWz8D+PcuM6+dVH8tmQr3JuyfoOP7uc4fK1SYFXf8TgDsjBqOiJmMazBaDvlExi55m5kHMOY7bkdqtKtzVrqU70JXvOCzL8bEwR2+Shf5DwMfCww181bD5F9NmU4bv4qqYxcUttE0clfjdtyzHxx9P8nDsE+mCxP0t2T1xApzZ/0oIIYTgMsNioGHxegvDk/LiHZ/DrfjNv7VJwOcygD/53Y2UtNDx7G/aDIlZrNc1GjL0W37SPuA5PO1Nv8YnqoKOOzw12TdjFj0shx0+lXuDerN2OvH/2rLc+AFm+m7PRrs0tUnAl5C4R1q6bjs6DhPqTfarClszBF+JObR1avY31aJcncdz9WbDjqtUhTfjgWimYLODAxPrDWpVhc0tBK7ClRc/T4dP07y9Y5XTeH+fWe0Wn09nzuMOIYQQzeQ48OOIQVhReCyoMyzDkMb2jtuRrFNO3PO+gxmGdvqBOyIGUUXhkaDOU4fTt+1Ahk5Nnapwnu00BjgJI2PucNZlAa1V1QcLbIdhMYsutoPuOOxXVdbrKts8OvdFls3wmEWR7RBTFN7W1caOeSZlhsVlpk2+7XBQVXhd13jfp/LNqIkPhdf8WrOiOZoDVxoWfU2bXMehSlV4KU1WYqhh0d4+OmT38phNdwtsHBxAQ2GDrnoOvW3nOFwZcz/3R7/WJPhodrw+pcXjvcByGGJYFFruNqs1lbW6yq6kYXQjoiY5KPzJr6EAFVGTTo7DOz6VAhsutNxro8CBUVErvh2FjSnnpIflcEXM5FzbYZ+q8IGmstaffr5nOl4BYbJJEYOQ43B/yN/YHi+JDNLhVvTJM13riXblZig6ckt9jDzbYU7Iz+VGy0OYz7EdropZFFs2NvCeT+XVLLJdvSybK2IWnW2HI4rCOr/GRp/KkJhFngPrdZWalO9RAb5qWHzZsOngwD4VXvFrHGzh/gw6MDxm0jtegXaXprIq4KOd49DfsKlRYL1f43zb4cuGjanAKr/m+VDnItOmt+U0uX7axx8YHc6yUE6uA1+PWVi4Q4SLbIevR038wLMBH0OMlq+41HvcBwyNHb2/97bi/v6aYdHTchrbA+53XWbY9LFszrNsDMUtBvRKfG6vl262Q3nMotB2sB23KNdav8buVhYQEmcmCfqEEOIMdlODwbm2w8NBPWNnEo5m+g4d57/vPtwgA8g4RG5Mg0kXy+a3uXqL8/7SyXGgSyKYSNrGF2yHnqZNWFFYo2f/T9k1UZPbIkbKP34WXzZUftgh0OSnX4+aTK038Sd1wL8ZhWG6mnaelx+4LRJrFihc12Dym1ydWxrcoa4b9BwiSefrHNthVjjGl1IyPN+Nmvwup/lQ3HH1Jt2so++9Pl4AJwZs1jW+Ylg8G/Dxnx7DeK+M2dwZifGuT21SifPrMYt/jRgEUo53uG5hexyxAkyMGFwfn3d0lEUPS+NnoaPDHX9Ub9LRcfhY9fOTiMF58U54oa5xWVLgUmS5bQN3yO5Gn7sNFfheg8mEBhM1JSDaHNP4eVBvMZADKI/va12G67bMsPh6zGK9rvJnXcsY9CU65cd7TyX0iJ//f3rMOwO42LS5Omrxjk/lNb/WYtA3wLSZeSTaeO+DOzR0ZNRiu8+70SowtsHg5nqzyXCwUVGT3+f46Ge4Gfa97QJNgr4QcHc4xpCUB0/fjZo8mmG+aTfL5ufhGBc0KbpjcV2DwYocnZvrDTbrGuv9GhHgx5EYPmC7lsNOj2GPt9Ub9DVtHgzqEA/68loZnLdzHO6MxIjhFq36dV2s8ffAq36t8RpN51NVaVIs6Bzb4d6wQV+z+XfzlMd3k3p/f6/h6P39x4CPgOPweF2syXtcFt9vMPnX9n4+SrqGFNzv5bpm874tLrBsfhHKbmiyOLNJ0CeEEGeoQYbN9xpMtmsqL2ZReS6RlRgVNRlqWBxUFKo0hfU+lb1pOpngFrTQFIV826HEsvle1OIiy+aFgI+/eFQzBLjUsBhfb7BbU1l+HHPrvhs1yXXgHz6VfUkdzF7xzs4/VTfQurneXVKgvePwsaayVtd4NuBrksUqNW2mRAwiCtwX8rPRp5GLGzxekhJsXWZYzIgYOMCiHB9v+jXqFYWBhs0PIzFy0wTYt0UMRkUt6hSF3wR1tvhUAsDIqMmkBhPFIzWhOg7/ccTtwO3QFB4P+tmlqZxn2fyg3mCSRxGcR3J9BHHncna2HZ7I8VHpU7EBvwNfMSyuMCx+i94sC5bIBicvNfFVw2ZGOIYDLM7x8af48X7ZsJlYb5DjkUsbErP4XtSkRlX4RcjPNk2hg+N+z11s70zVjVGLBkVhXtBHVFGoV+ClgMYXTZvvN5js1lQW5rrt+jTpOx7TYHJrvcE/VYWHQ37e0zUKLJvb6k0GGBaT62FOSsdVjf/XznY4z3aoiJlcHbV4z6eyJNf7mjzHdvhpOJGd9rc4PDhxT/WxbO4Lx2hQFPaqCts0lc262qrhxX1MmwGmTUxRPB+m5MUfDJjAQ1m07ULL5oF4dc8XAxor/T4OqgpfMi1uixj0SBO3XBc1mVBvEgN+m6uzQdewFRgSNflBg0m6Z0v3hGMMilnsV93M/nZNJd92GB01ub3eu5BTyHGYX+cGpe/oGotyfOzRVIpNi8n1BuNTrv1DqsJ6XeVrhs0VMZOdKQHTebZDX9OmXqHJcPHEMNwJ9SamAjWqe57e8vsyFnFRgNsjBn/XFF4J6OQ67tIdMz3mb+bZbuEf1YHZIT/18e2mu78LLZubG0wmenw3qff3b3N1PtaOLnWj4y5H8kyOj7/oGrs0hTwHpkQMBhoWP44Y3Nn+6EOs4VGT6xpM9qkKc0J+/i9+r/Y1bTpnyCqLtkWCPiGEOAMV2g4zwjHqFbdcezbDGxNZiUtTApwfxUvF/9pjnhHA9IjB8KSn9/tVhentAvw1Tae2wHaYFTEwcduWuW5nel+PWfyg3t3O4ymdu/PjWYEDqsq8I1F6mTa7fSqGo9DbtLnItOlvWPxrO3/jd3NpUpZnbbxT3YDC33SNvyV1srX4nCmA36SsibUioLFXDfAfR6LN2lsUr0BpA1NSnrT/OlfHdI5m5JJdZdh0s2yqVYUft89pnJ/3mU9lWjs/jx2JcVHKOUvM5ZqgmIDD33WVrT73Z36gLqJwru1Qatq8lzRE0u0Uu0HpmviDAtVx+GGa430xoLFHhYeONI8Q+sfb9L8BX2MBlk8VN0OXTrFl84MOOWkzLrVK8yxcge0wrsGkQYGp7QONFTHDmsrPQn6WHW5geMxiSY7DnqTMzzeiJndHjl59MUXh0VydF3N8nuvt+YB7wzE6Og6/DPmzyk4ngr4LLIcLrKZZnHd8Kr8M+Zs8rEjnQsvmF/Fr6qkcX7PvR3UcfhaJ0dl2mB90A4CW/DCeqXsh4OPhpIzvar+PD30aTxxqIPVMhYDvx6+Fe0N+1iedy2dydY6oqmeWq59pMyhmEVFgUvsAn8WPuUZVmOPz4wsbDI01v/avbzDJc9xCRFND/sbfP5/pGlN0jacONVCQEpS87PfxNSPG0JjFwly9ye+gK+P31+t+X2PQBe46gQCDUjKjP6o3WZTjY2maB1M6YAI/aRdo8ruxRm36zSnAL45E0RxYkuNrUpAo0/09NeTnN3VRLrIy39/v+poOP48pCuPzcvhn0rUVVuCBkM7vay0uNW38jtNY+Cpxr64MaGxJulf/9DlcpkKcPFLIRYjTohdjZj/B9IrT3Q5xJvI7DvcdidLOcZgX9FOVIUuX7PGgnx90CPC9vBxu7JDDtHZ+Vvt9KI7Dt6MmN3gEJAAf+lT+qmts86l8qip0th1mhaPcUm+SOjBJx+0459sOjwT1JoFPtjTHnVM1IxzDwl1DK7U6ZSj+/0sMCw0Ym5fDre0D3NAhwO3tAxxS3OD26qRgtT7eQepr2o3DC730sWwusBwOKAovenQG39ZVdnsc1/CoiebAWr/medzpMp4V8e99aY6vWUEWW1F4vpXVBmPAG/HO3BUpHe0r49/HqwGtMfAptdwMbq3qfbzv6JrnMLpEW79sWORl+D6TPR9oHtC0ZFjMIuA4vOrXmi2BUK/AZs0dbtsrpeO8X1X4i66yxadSpan4HYfJDSYz49dnqh/FhwW+6td4JcvO8J91lVs75PD9vBy+l5fD/2sfYEmOj0j8+psZNpoNR001PGaxoC5GngMrAj6WeZyDHzSY/Ith85au8kIW18M5tsNAw8IEFntkNStVhY0e2cTL4vP1dmgKf/H4DlYGNKIeD5i+Gb+GVwR8jQFfsucC3t9nRfx6XJLja/bAKUzTbHTC3/watarC+bZD76RzrkDjw6k/puzv3pCfm/JyuD4vh5s6BPhpOz9v6yqB+AOPKzLMhX4mzcOwZNc2mAwybP7hU3kqZTj2NzPc35YCzx/DSIgYNAn4EiIoHIr/vDDpsksMJU/MtRRnJ8n0CXHK9WLM/fcynJeZs+p0t0WcaRTcsvM942uQvdGKJ7WVqhLfgmuP5ma4tvsUJkXctcOe9ejUPRvw8Wzg6P77mTZ3h2Pc0GDQ3nF4KCmLMClicLFp84Zf8+ywtSTPdrg3HONS0+aAojCrnd+zemKii6Yp8POQv8ncon/4VJbk6Nxeb1ARtRo7yW/oGt9XDM63HZ4+1MD/BjSW5TSfb5gYmrjdp3hmhAD2qgrdUvqJic+9lybQ/Ux1t5c6MCzxuX+kqRK55xjmQ74U0Ph21OSKmM1vch1sRXE7xfEO6Mqk66Yo3nHerjWv1JpQpan0SMlkvRjw8Y2oSalp8+zhBp4P+Fge8GWcW7f9GJZkKI6374uWw8/DzVt4Yfz1opRAbqOuNQlsiiyb2+PDgAstmx91yCEREl8Rs7iuwWSvpvJwFkMnEz5TFT5L+vsnqsLffSpv6Rq/qYvS17T4iqE1yZglJDLK342ajUM2Xww0L04yyLC5scHkE1Vhbii7tnWNfxf/1JS0c329rqvEtfAPn3eRFBt3bm1JyqL3LV3DXg+mchx3bm5if56f82ijCbyia1wfNRkatXg/6G67h+XQzXar+X6Qsr8dTdqlsFuDtbrGv0YMRkbdocPpsl7bW8iq9jRtflTvFtP696RsZcLJuL/BXebmMsPiEtOmm+VQZNmc4zR9PfH7/oWAxoiYyZdMm2cP1fP7gI/nAr7GAFGcHSTTJ8QpFaJ86t1U5G1l0b8vZufpbo4443wjZvGNmDs8b52uckl8PtolKfPS+pluZ+DcLDIwywNuZkJ1HEpaeL8DvOtTmd7OjQJHxaswgttxvjZqUq+4maZ+KW1T45v+kulwiWlzfsq+elgOj9dFudS0eVtXuSUvkLZcfiLI262qTQq8JGyOzzXsah8tQXJIVZjYIYc3/BoabpXIpYejzAjHmjz9Loy369MMZfhtjy5xIuhIrWiY4ABOSgc8x6Ex6/Rpus8dQ7/sA83NRnZyHL4U76AnOsXv+ZpmKhPHuz9DB9CrVmGlqjC5fYC/6Rq5Dny/weR/DjVwe336NSNrj6H0fCIr28O0udxo/t/5jpsRDbaQUavSVGbFh232sBwGxbM7XS2Hn8SHLL7g1+hlNb1uE5UfS+I/b2ntPnCDjD/Hg4geHvdUe8fhgSNRvhs1+aeqcHuHACs8Ar7z4sO4wc2i9bCcJm1LZFi7xX+eyHaen8U17HVdFbZwDYP3tVDYwjXsdb+cHx9uHoZmlWwz7QvglXgm7wrDauzIDos/0PhjmqqeXhJFVApth5DH9WPizuFLJ9eBeyMGOvBgsPkDpBA0nqMTeX93t2z+63CUn4UNvhmzyHUctuoaz+R4P3TZralMbh9go08l6MCNDSbLD0eZnMX6rqLtOAMzfZcz9fEp9Guf/LNdrBo7jWWNfx/H7KUjKU5+S91mFqztyKSKkvgPDLY9PZb7PTMtIcbc/xQVjRsIs2XBTcxbm6k9md7jJZ9BYycx6vK+FObHn5JbYWoqt7NtRy0FXeG12QvYlO3mshHsw6hbx1Het4SCYPxnhsGhT7by51dWsqPbSAbsuJ8FjceQ5nuceD/rE38fPJ3HJ5URTH5P5UpunL7Yuwk3zOXxihKoXMnE6YuJZN3uCQzvV0ReTqLdYWo+2sCqZxbwerrI6Ya5LGk83+nUsmn+rczfkP4deYNuYfK1X6HnufnoGmAZHKp8g6fm/I5NWR3AUYVjZzG+LMb6efezppWfFQKgf7yj2t5x+KXHPKuEX8VfeyJX55kWhg/ZwCeqSncr3onMInn4saZQoyoU2I47FNKn0D8+XybXgTkZ2jYnPnfp6Ry9sWhHoe3w67oGAg78LlfnmRaWYcgUoACNJcs1BxTHaQy2PlXdp/FP5Th8v8FgeLxSY08ryq0dAm4nL76NDhmCiDyPlxIdV6/XwA3wAinbjCk0Zv862A51HlmFbIdOJnOAlwMaP4q4BS/e9fkb5zulLk4djn+XeXb6YMZrOCS4nclp7fz0tmxuqDcZbLgZsyLLZka7QLPOt8XR7EO2Ep3lR4N+fp9mmGC2YorCP3wq58UsutsObwEXW3bjemjpCo4A3Bp/batP5cftA2nfl5AIAFK/Ox/u/dnTtHnLrzE3qKcNLHqbNu3i14xXwY+EcQ0m4xpMPtDcKrTh+PbatfKcJubBtc9w7ed7vBZWFPJx0v7+6OC5L3dnQdzr3+s3Rrp78CPNzeb1smwuNm3+oSkMMyyiitLieqXJDiTff447Ly6ZTea1Pu+oNyiybP434BZ7StXguEM4Ncfdfp3HaU53b6WjAPeEDQpth+dyfDyR42syOuOKmEW+x+d2aSp3tw9wkWkzrsFkkGHx3ahJke1wj0dhGtH2nIFB3zrmTXyH/nc+zJQB+Rjbl3Hnfc9zqMl7FjNz7ItcN/sxRnXXqVl7HzMXvEcEWP/8SKY/Oo7SHJ2C7n2A9zz2MZRu58b/uG8d998zn23pOuhd+1LYHiBEYe8iWFvV8iH0GMn0O8ZRmhem8k8LmfnCaioPhCgcMJSKUd+hfEQIqKI6SKuDirSCQ5k6bxI9D7zM0gfns3F7FRHyKR44lNHfu46KCWWAwbZPkj+U/ntstPZ+Jr49kClzp9K/k8HO/57MfStq0zZjSLcu7h/OLWEI0NLoxuCAScyaNJT86tWseOReVr1bC51KKP/2JMYOG8r4n/am6KE7WPRu888OOq8zWAZGxioS+6lKG/CFKL99LuMHdaRm/TIe+9VqNlVD4aipzLr+KqbM68iCyfOOBsAt6TqOySNKiGycz4LN2X5IiKZe92t8kKZiJsCP4oUrfpurYyuwJYs5dT6ODkHKdg6eCo1PxhMB2Jt+jT0Zhu9NiC+V8GSuTkyBf8QDHAW4O2KQ68AjQT2rOWy74kMRu1o2IdxsQbKu8YxHpU/1DB73aAq/DPl5xnJ4oq6BEsumr2Hxjn503lgP00Z1nGaf9zsO3a3mHbW9qsq/YHORaTVZCiEhdc4ZxANuTeECy+GLlkOVR3/1Io99ZeNVv8YP602GGDa/AYYZFmFF4U8p10/ieHtZTtrjvdCj7cm2ayo/beenr2nx67oYXzVsOsfX0msNr6vnaPtssnoi0YJQ/OtMXLfbNcVzaYuEb0Utulg2L/k1Kn0qNVlmKxPDUnelBPJjGszGgO/ekD/jGoMfaWrGto2IWpRYNq/7NXb61MahnIns9wU2nveHgjtcNlW1qgIWvdNkM8+xHc7xCFKqVIUiy71WN3g012tf+5OGO/dKKTiU0CtDVvWlgEaviM3QmIVPVznHdnjJrzUGvNkotB38uMFua6/Vr8csRkRNPtYUfp1mSQpLgU8UhSLHoZdpU+URGH4xi8xxsnNs935sUOCxHF+T+9UPnNtCxvt9n8qMdn4uNW0eqotymWFxju14zsUUbcsZGPQBhNlUcxDIxwjvTwn4Emqpro0BOpG6pEAlctANAnKg4LwyPIO+vt0pSGSUGg6mD/gABpdQULmLyuISirtdCXhnuBoFhzL1rnGU5tey5fE7mLcm8as4TPXGlSzcuJodUx9mQlk+BQOANZk3l50ixsyYQL/oau6b+bukIYW1VG54nnkbVjNs+sOM7xsi1Cn1s2m+x2SRDeyvAzrFCB9IH/DBQHoWhqn8SKe4exd6DgQyZNgIjmTKxKEU1LzMnOR2H9jFmiensaNhLrO/VcKwH0zh3Snz2eKxiUOb53P7Q5l2kl6/2+cyYZCfLU9OZt7rR4+r+qNawkAwv4zh18D6P2SztRCjbr2KYj7gucfXHVN7hAB3geJMDxoSQd9/B5oXRshxaFZIAOCm+Fp0larSZAjSObZDTMFzod9vRk2CDhxUlMaCAht1jY0Z2nZTvYHPgecDWpPMRh/T4lLDYo+m8Ics5wEeUuC1gI9vRk2urzd4MqnTpQDfja+tllyVM9ehSUU/cIO/KlXlQstGi7dpq64SVRR3QWbD5uWUjtoNDaZnJmSDrjIq6haTeCbHbrIMhg+YkCZT8zdd4wLL5IYGk7d0tbHiHrjn4LvN1tbKzgFF4a8+hUGGzTeiJl+wHV4I+JrN2XxPU6lX3KGE34hZzeZijolansUfvL7P93waYdxAozXzRxL/EnoFFOt0jXENJsNiJssCmmcRnXOTAkwfcJ5ley5D0sNyKItnpBPVEHdpTReST/Uvhk0XC9b6faxPCZjT3VOXmDZfNWwsBbYkzVfTca8fgPm5zZfTSLVHU3hWS39PlJo2JZa7UHryEgWVmsI+1a3gOqbebMyoJwyPmh5rvMHbugb1BpeaNmWG1VhFEuLrMqa5hjf4VL5sWFzbYPCCX2syVyzXcQvRpLKBTX6NQTF3eZefJFXaBfdcfT3DOoSr/T4mRwy+bFiNWcLULDbQWGwqteXJx/O2T2vxXCRLrCdpAD8PBTyvgYS/6RrXRN37+89+rUlG8xzb8Vg7L7Pc+C2iouBTms47vjZeTMrrM6n36hbtaNAtNTzPDmdo0HeCFJZQQfNsU7CshIIsN1HRvQs1Hz5GVXAKxWm2l2zQxDH0y4fI5kVJAV+yMGvmLWLA41Mo7FkEa7LIHLakbAyXdYedyxekmUNWy+vzf8+AR8ZRkJ8u+3kCdDV2gQ8AACAASURBVC2jOGcvr7/tp7B7L4r7FsGG9McXvHYwpUGofPN3nu2uXrqWHcNKKC24lOGDYYvH0NrammML+CibwvhBnYls/V2TgM/d6EEiBqDuZ3e242/LJlDeQ+fQht+zQoZ1itPk2cMNrPBrbNU1PlWg0HYrR15uWFgKzGnXtEhEb8thejjG8wGN930a/9QUOlo2QwybkTF3oN6ckN6qtci8XGS6W1Cdo0PovHyqNq1k+T85Pr4edYe1BYHVukYAuKbB4CuGzSeqwpKk94+vNzjfcXjF76NSU1Ad+FrM5ELL5rAC/xcPAg4qCssDPm5oMJgWjlFouWthBXArSY6Imm5mIyVA+Uu8wmmpafObuihP5Oq879PobNuMbTDpaDsY0Kzi6dPx4LWbZfPruhiLc33sU1V6WDa3RmJ8oqpceIzZvpf9PgYZMcbEO5ZexXUOqQr/HfBxU4PJv0YMzrWdxuO9ImZSEXUD8q4pbfi3SIxDihsM7VEVch2Hb8UsQrjDf7NZ8iBhj+Yu/1FkO4xuMNmqq+TZDht0jR0+ldcC7rl+tC7Gf+Xq/F1TMFSFYtNmhGGhOE7jPFPdgcV1MVb5NTb5VPZoCrmOW4Doew0mftyKjLtPQGZjRsRdm+8tXaVKdddKG2BYjG5wF6x/Mqfp8grFlkPAcbAU+E6aarkJT+X4mjwAaA0D+K9cnX9LKri02q9hAJeZNmMaTHZpKiUpgd8OzR0eOSxm8csjMZ4M6rytqeQ7DqOiFl8yLT5TaFIwBGBljo/vRk3OtR3+sy7Kwlyd3fFr5gf1Bkaa4/hdjo+vxiwGmDYPHInx+xwfnykKX7IcbqmPsUdR6JYmc3VIcR+ClccsBhsWu7WmyxoknGM7PFIX5fc5Pt7XVOoU6GK56wf2NW3qFKVJMaqW6MCssDsy4V2fysWmzcUep/Ilv/sAZ0muj4qYxYWWzSOHoyxJub/3ae7Q+mxVqVCruuum3hOOsTjHh4rCEMPi2w0mdYrS7KHUPeEYn6kKa/0ae1V3/uuoqIUf96FHS8PlRdtwlgZ9tRw6kE9ep84U9wW2Nn11SNfO1Oz8gFCPXk3nqjUTz1y9to5tnSYw6BLv7TXqegujBuQDVaz/70zZnnU89vo3eKjvQOD5rI8qncKyEvI4yLuZApTIShatv5IZnbxGgp8gg0soqH6PVa/olI/uRcEFmY/vkvM6A1BQOJQgqz2yjCvZvW8cpcUh8ouBlKCvOD8EnzT7UFaGjbiUAsJsWfdy8xf3LGbm+BYyup7b28+a52Vcpzh9QrbD+AYTUp4s79EUHs71sz0l21GnuB3U8Q0m0PQz/1QVFgT9nmXfWyvRQSmyHcZmeOr9gaY2CfoqVYWftQswIxzjugazyRPz//OpzA7qTZ7AOwqURy3KU8qz16gKs0L+JkPgFuf6aBdfyiIxXwrcOWG/DPkZGrMosptuxwF+FvIzKxyjr2kzNWKQyC9UqQr3tA/w20MNQNMCFbWqwrR2Ae4Nx+ht2fwiaT7kJp/KM7k6D9U1XxcwG3/1axyOuFm89zWVHWkqET6Tq9PBcTMFXsdbblh0TaneqTgOV8dsro42/XmlqnjO58vkU1XhxYCPUVGT2+oNqHfX+9sQv75+latTj9tR/XHKOnExjhbkAHfe4GEFvhU1+VbK1xZRjs4ZPSEch6/HLL7usZ8ncvRmcxATa2VqDhmvdXBL/KefGduyV/0a59g6t9QbjIqajIoHmTbuXN9822kW9AE8FNTxOw5fM+zGkQPgXqcz2wW4M2JwjmVjJ11KMWBa+wA/r4tSbDv8NKnK6g7NrTr6xOGGZvv6UFOZ1S7AT45EGWDaDEi69l/ya7zjU5kRMbDSBH4v+32Uxyx3TnDQ+wGUA3S2HSZFmj9Qes/nVmttzdDG79cbjUO13YI63mfpTT2HmOJm3Ke207n3SIyLPO7vZ3N15rXi/rYVhblBd3vlsaO/z2KKws9DOhPrDdqnJEhVaHINJOzW3KGe4uxwlgZ9B6n6JERep84UNQvSBtKzEGo2HyHUo4XNJDJXG2DNhfuZcEkJ3cpCsNUrgwelo8ooBKjczPI9mTcd+d+/sr79QQqAmmwPK438HAA/oUIgw36rn7yXezplGp55fCq6d6Fm93yIdKG69ioKz+1NOS2PYA1ecjWju65mUQvfWTOageF9KlpwLZddFALjA3ZkXZgni+3t28Cq1h6DEK00M/4PuFdFuOvzc7gsZlFgO4SAfyoKezWFt3XNcwH1rT6N6/Jz+WrM5DzHLaqwT1XYq6ps0tOX90/n50E/qgINKU/9Vwd8fJBFKX+vYhd/0VW+n5dDeczkAtvhoKKwQ1PY7NOaDW9dmKOzWdfobVp0tB1qVZVK1V2PLPX4Y8DDQZ2XAxoXmw7n2zb/VFXe1FU+UxWqVYWXAho7UwLlT1WFO9sHGGDY9LRsgo7DTk3lLV0l1zm6XEPqsWz1qdzcIYcyw6KnZWMBW3SNzT6VkOMws52/2fcG8EiujyDwseYdxMSA6e0CdHQc9mbo2Bq48ylfTT5eReFNv8ZnqkKVqvCqX+PDpOOd3S7AQMOiu+XQwbY5oKrs1Nz131JDiV+GdHRgf4ZhlA8HdTbEzw/AX5MeKDQo7pIGLwVs/iVm0clxz98+VeFvPrVJxcKYojA6L4eBhsUFlsM5jsNBBapUlXdS3puNRTk+VgQ03vc1/9zskJ+vGjYX2A75ts3B+P2xRVc56HG+dmlq4z3aEq/znWppwMerfq3ZAxtwg7tncnz82a/xJcPmAtvms0RWMp7l26qrza6LsKIwq12AS0ybi0ybjrbDx5p7LYQVd51OOFrwKKEyXh23zLT4ommj4s4f+6uuoUDa435LV/m/vBwuNSwutBzqVYW/+lTe96l8Px4YH0lzzv7mO/p9vpPmAdQ+VeH7eTl8xbDpZNv4cR/C7NbcNRy9AsVDitter/zbX+LzJ1tSn9TmrT6Nm/NyG+9vE3fY7zu6SjuHFu/v1KHK63WNcXk5DI5ZnOs41KgKf9I19qsK9Sjk4jSpanxvSOcrhkZ326G9bfOZ6j4AetvjXhVt11ka9EH1nv2UlhZR0GUosProC13LKM7fy8bt0G1oCxvp34X8fdt5E2DtLmq+VULBhSPwzl4VMehCN3NVU7W55aqVkZUsejLLg2nBtqpaDHpRWj6U4AavjFlCLYcOnJh9NteH4oIY1WuqgCp2VBv0L+1CaV9YkyYz+u7G9zjUbyB5Rpjaz7zeUUQoB8Ag7NnuGOFPj6GpFX0p1oGa/ew4ho+n296hjzdTfSK2J0QG6zJk3g4oCitbuXbeYQVeOYb19rx4rVUGsFtV2K0ee+blsEJWx2UpsNGnsrEVa8W9r6m8r0HqrJf/y7ANEzcY/UvK/K/SeHZgv6p4lqg/pMCf/Bp/StmXuzyH9/ezOYtMa7r1wbykO973PbYRw13rbG0WI+M2ZNFOB3duWuq8uWbty235eAzi90L2o/bS8iowkhBTFNa0olpkraqw7jiu9VRe5yXVblVhd0Aj9Zy6cxm9P+MA7/jcIDlZQXxpA1tR2OMRaDYobkCy3uN8Z/rdVKMqvOpxDyfmHXrN4wT3ns603YQqVYlnXbP77mMZ7rntmsr2YziF6e7vwxmOIdP9/YmqsNyjMvPbHvdPTFF4y6/xVivbLNqWs3advtjmXdQAwfN7u9m3hP5dyN+3K6v6KRUXl1D74RtuELVnK9V1oJ/bm0Ge774yXhHUoOajkzRnLp1X3qbSgOAlk5g7/VpKM49ZPTm6DqZn+11si2fO3ty9F+hMUb9Q2o9E1szj9htHc+PN93jPg+t6FT3PBYxdbGs2kbIP+SnHmde9D6V9+1DaPfMQ1tLund1+QuQg2xp/mk9xX/fzxc2K3WTmbs+gZvcxzi8UQpzxFNxCNuDO/RPiTHRTPPO2WVMyFi85ES6wHK403KAv9QGKEKL1ztpMH1s/oqbhcgo6dWEAsCL+40EXFmFUvUQ1g1vYQHLmCmAdO/ZNpl+PLpR2hfWpw/gGdo6vmxIm4pm1Ookiz/Pgk12ZffPlFPQdw/THv0Hln5bx2LOrqT5VRUWSs6JAZEsVNRUlFHYbCqw8pk32u/YrFAKRrS81nr+j8gnlhAnX5jNs4r18+/Ii8pL7WZEqNj17L/NTi7QA3fI7AmCEDwK9qJgymVH9iwgmfT5SvZlVTz7Cim0tjx/t2bkjx5x1FEKcUR6pi/LHgI+NukqtoqDhlu7/Yb3JJaZNGFjWwrqJQpxOs4/E2KSr/FnX+FRVUByH822H8VGLr0dNbEVpMofyeJTHLAaZNiv9Gjs0haii0M5x+LJpc1s4hurAn3WND7JcSkYIkd4Z/y9PsGwKS5ZOOYZPrqa6ZhylXYvoOZh4EZAiSov8VL+1DloK+oID6ZZfxfqkOV+vfbif63oU0W0wsDTl/X49PsrkIPtPQ8InsmY+d219m/F3TWBY93yKh03igSvGULnu9yxd8nLmZSniiiuWs6Ti2PZf3rOI2qplR4eWbt1Kdd3lFBT2pj8rW78IfY9bGFuWD7WbWfpYuqI4BqERDzK66CNWPTqfNzfs4hD59LtmEuO/XUb/mx9kqnFHsyqqeSH3TBkNMGb2vVQU7OX1/5rGC6t3cahTGaNuvoVRZWVc95NZBGdOY1kL8/SCug7speqEzA8UQnyeXWTafCle2CEM5CoKarwIxSEFZrULtKqqpRCnWrFtc3nE4g4MGuILiydCvJii8EBQzzjktTUCwIioyYh4gZEj8aAvYZNPZU7oxASYQpztzvigL7J5PhPneXf6B019ikll6YYPhtm4Zz/DunZOWlR9IEWd9rP7FeBfWtjxiO4UVG/ntSZt2UXNiCIKu4/kWLNX3sYxe+lIilv1mV2sGjuNZck/OrCORTPX8cIl13LTmKvp3zWf4vJbmD5wJFtWLOCxFWnW4YurXDWamU97vzbm/uVUpG1gH0qLoPq55GGtq9mxbwL9epRwSVfY1KoCJ70Yc8uVFLKLVb+6nzWeje6IrhfRs+Bl5tzZdG3CLX+4n5nRWTx0Qx/63TiVYWvu43WvTXS9iuH6VhbembSPA5tZMW87tdN+w4RLShhyw1Usu9+jwqcQ4qw0qUOAoTGLEtvhC5Zbmv9TRWWzrvJqwNdskWwhPm/+rV2AK2ImF5kOX3AcFAcOqO4ajC8FtMYF4E+EN/0a9YqfQTGLcx23ummDovGR5s5z26Rrx70kjBDCdcYHfcdj20f7MQZ1Jj+xdEB5bwprd7E8i6xXs8wVHB0yWtCdUkiaD3a8FjNzbOuWCMjk0LvPM//d5wkWDmX05HEM696ZftfPYm73BUx7KFOhl2PkkRUF2PjxQa7r0ZGi/mSsKtpUiPKpd1NRuJdV/z6NZd4LDwKrWbQgTLeDqz3X+IusWsm2ij7079Sby66B1z0WWA8WwPp5XkFlmDXL1lJxyVUUXjSYUbzsMbxUCHE2+lBT+TCLQiNCfF5VqQpP55ya7NrRYkAyz1WIk+2sDvp4cy81N/Sh8Avd6Q9E+nZBr3k5i2CtD6VFIQoKZrHEq2pLTgkDgqQZMhkiP9NafqdQpHo1i2au5oVhU5l140AKBkxgxg17mfn0Byd2RyO6U6D34rqly7nO4+XCnikVVNMKUX77XMb3PcjrD9yXIeADCFO9cXWGapmbeffjMP07hSi88HKgebbY2PYyi9Itq7dnA7trrqKwoIieLa07YQF0pqhxGLEQQgghhBCnztkd9EXec9eLy+/CxUGIndeZ6m1ZDMsMllGU/wHPjb2nWYanYuZSxpR2ptsIIDl7tLuWMBAkROgkrn9+LA69Po+ZxnTmTiyjeMgYhj2dZrjjMRp0YRG16+/jrkdTqpZ2ncSvHhhKQVFfSlndQrAdov+EXzB+gMH6R+9jURYFVFqycV8tEwgRzO+OZ9DXcDBD1vM9aiNuu/K7Zt7Pjs9qoXuI0BeOq7lCCCGEEEIck7N8DMoGdlQbQGcKh4ykW+F+dmeTiRnRm8IDe9no8dKqj/YCejx7lGTPXmoaAELkt25y3vHrlE9eC2+JrLmfVdsMCHbh4oEncud96NfV771MxZ7NVNYCBUX0a2EZiR43zGLy0BDbnryHhRuzCfhCFPbOvLxCxIovLZ0yqqTyM3f7bjB4/DZt34uBTl5RnxOyPSGEEEIIIVrjLA/64M09+wGdgn5lFBh72ZHF3LJBFxYRSbfQ9tYqd/2/or5N1/9jNbv3uX8qKGxp1Xeg6yQemD2m5fdlYdQdDzM5i6qbq3a7AavuPyG7dQXLKOq0l93N1tED2MDuTw2gC92GZNhE+XTuGNGRbY83r7SZTr/b5/LArFnM/vlU+qV5T/8Cd2mGyGcfNfn5+ur97h/ad6Q07R5C+FVIvzB8klVbqTSg4MLBKdeEEEIIIYQQJ99ZH/RF3t/LIaCgbx/y923PYlF2d1mHtAttb3UXaefcEsqbvBBmzQ53Tb/gBWVpA5GEwuG90T85MRP/qg4a9PzKGFpak700P/1C6cdsSAmFB6rYkubl1z50g+6i3mnSiz3GMePmvtS+8mD6gK98Og9MaxpIlxZ1dv8QDFGUZt9FHd3jra15p+kLa7e7AX1BCQPSDt28lIJ8gIPUtHiaXuEflQac25vhLQwFFUIIIYQQ4kQ764M+NnxEjeH+sfbjLBbQC15Jt3Pjyzp4Wk1VDUAXuqVk16qffYudBtCpDxXDMu1jJOP7x9i4wmNI5DHYtO8geo/LGV+W6V0h+hV1hsgu3j2BxUYGlZZgVG1NO18vEXTnXVDWPAsWHMrUu0aSv3UhczIUl+l3SXf0A9ub/tBy/1ezYRmeSUauorRQB6rYtjolmNzzLBt3GkARA65N86V17Uthe6DmA9a3mB0O89xrW4lk2p4QQgghhBAniQR9vMLuTwBqqdxa1fLbh5RQGDlIVYZ1DbZ8Eh8y2j1lDlfkeZ54ZRcGIUqvnU65Z+qtF2N++h1C6xe2uOh31j7czyE6M2jCLCp6pHnP4ElcVgw1f112Aou4FFFaFKL203QlMDkadHfqwoAmL4Qov30c/aKreXhe+mUk8oZN59aBIQ591vTcrVj/HhEMDh3wPqc9JoykNAiRbW+wvNn3HOa5FzZQA+SVjWO8x3c26PqBFGCw882F2S3NsXYxb1Ya5PUdSUVLKVchhBBCCCFOoDM06As1zsfSQ53TFCnpRWmRO3wv2L7P0aGNwY7oeoj80sRQxjD/+KQWGvayIynRl1fYER0gpyOljR/Op6KsBD3YmZ6l6YdC6po7Ka7gkjFclxIwVC+9j3mv7MLIL2PCQ3MZP7Qk3v58ioeOY/r8GVy2f3HGzFarbdhPLUB+H8bMeorZE0fSvzDe/k4l9L9mOr+aMJDgRyt5bGHqfvMpzHePp8n3mCw4km4FAH5CnY6WJg2WXk3puVDQdWj6QjLBgPt/vRfltw9M2v53GH5JCDoNZsaTS3kyzX+P3lxGHmFqUyZYRlbN44nV+ym++jfu8XaPt6tTGRW3P8yMoZ3hwAaW/mqld0C5eT6P/eEDInoRw2Y8zKSKMvcY4p+fUOanevV8HvxDtlVEq1j2uzeo1vtQMfHylt8uhBBCCCHECaIUd+vunKqdbTbdGHNIx9zj2Mo4Zi8dSdMCmLtYNXYayxJ/HTydxyeVNQ1Q6jaz4GkYn/TzylWjmfk0cM0vePLL27l9+mIiXM7Ux6fQr33yh8NsWbCa/ElN9xvZPJ+J85JL/Xt9Nmk/SYKlVzF29EgGdO9MML4GqlFbxZZXFvLEivdO8ALplzPlgaupfWUx/8gpY8CAgVzSozNB7eh+t617jieWruNQ8sfSfY8T72d94u83zGVJRUnT3VWuZMFnQ5lUlhwYp5yjdJ9t3L7XeU7HY9txwdJruXX8N+hXmE9i7Vejbj+Vm1eyfMnLadZSzPz5SM0HrP/vB1m0vjbt5948WA80v9Z73DCXGRUhNs67jQUZEqBCCCGEEEKcKGdg0CfE51+6oA9ClE99mAndP2Lh1PtZc2KjeyGEEEIIIZo5Q4d3CnGmCrNm3oOsOtSX8T8dR7oplkIIIYQQQpwoEvQJccp9wLJ/n8MaazCjs1g/UQghhBBCiOPhO90NEOKsFHmPRTNvPd2tEEIIIYQQZwHJ9AkhhBBCCCFEGyZBnxBCCCGEEEK0YRL0CSGEEEIIIUQbJkGfEEIIIYQQQrRhEvQJIYQQQgghRBsmQZ8QQgghhBBCtGES9AkhhBBCCCFEGyZBnxBCCCGEEEK0YadlcfY3D9afjt0KIYQQQgghxFnntAR9Qpwt5AGHEEKcPkM65p7uJgghxOfCKQ36ynw2HdqHTuUuW0066UIIIYQQQoi2RDJ9acjTQSGEEOLMJA9whRCiKSnkIoQQQgghhBBtmAR9QgghhBBCCNGGSdAnhBBCCCGEEG2YBH1CCCGEEEII0YZJ0CeEEEIIIYQQbZgEfUIIIYQQQgjRhknQJ4Ro23qMY/Zjs6g43e04G517LbPmzaKix+luyKk1aMoTLFm6nCUL5zLmVB774Kk8umQ5S5Y8xewbep3CHQshhPi8k6BPCNF29RjH7J9eBeuXsep0t+VstO95nnk3xHV3Tac8eLobc6pczqDSfPePwRKGjL7qlO150MA+5GmAFqJ4yBiGnbI9CyGE+LyToE8I0TYFhzL1rpHkb13InKc/ON2tOWvtfPo+Fu3uzfifjuPsSPi9w8YdtY1/C55TRMEp2vO7G7dzqHHHHSk69xTtWAghxOee73Q3QLQFIQrLv8Otwzvz2sx5rD/u7V3O1Men0K99hrdYBpEDe9m2ejFPrHiPyHHv8/MnWHott469ktKunQnq7s8i1ZtZ8Z/3s2pna7bUi/EP3Muw/K0smHh/0/MzeDqPTyqjSRKmbnOz9w2a+hSTykJHf1C5khunL27lEbUkRGHvgZSPvJoh3fax6Pb7j+NaKmLMjAn0M9Yxb95qz+sjWHgVt/5kMPun3MOyY2/050uwiPJvT2Z4wUvMnL/udLcmLsyaRxcz4KFJ3DF1L9PSnI+2I8yaeXdQM34WU0eUoBsGNadoz5E19zOt5hZm/OQqivUYsX2naMdCCCE+9yToE8chJTir28xrJ2S765g3cR3B0inMnnk5BQ0f8NzUe1hxwH01WDiQISOvpmJQL/pfP4uePRe0uY5kj9G/4O5remFsX8nS+15kzUe15F0yhVnTLmfMT+eSN3May/Zkt63CsRMo76pDnceLa+9n4tp8rpv9GKO669SsvY+ZC5oH0evn3cT64EimP3IVNb+8jYWtCjozaxZQAtQdX2+1cOwUhncPs2nBfLakvnjDXJZUlMT/sqttDPtMCd4jm186rc1pJrKax1YM5qEbxjG5fAPz1oRPd4tOsjDblm+nZkQJ+odvnNI9R7Y9y45PrqLYv4s1p3TPQgghPs9keKc4DuuYN3E0N/7sZaqNE7/1yLaDbvBhHKHmQNLPqzew6vF7uP3fV1MD5JWN4dayE7//0yV4zS+YcU0JNa/cx7T7FrPmI3eo2KF393DIAPQSBozqk+XGruXWESXoGd9US3VtDIBIXYasaeQgRs1etp3AgA/cgPLGsaPd/yYsZlvDcW4wfszsfIkn1nq8/vQ0bhx7D2vaUhZk7f1MHDua+16p4iTciidEZNVC1leH6HftBPqd7sacAj3GllFofMCapVWneMfj6NfVYOdbi6k+tXsWQgjxOSZBnzh+O7dTc7wd9WPa72I2VgLkU1xWdBoacBIEr+Xub/dCr36DxxalBmD7qQ0DhKl+/70sNhai/ParKa7edcqGlx23yEGM44xa+t18JT30Wra88HyG7O8HhE/HNXuS7fxo3+c26IMqFr38HpGCgYy+4XTdr+OYvfQppg4+uXvJGzadO8r9bHlyDitO5RCETlcx9a6h+Dcv5ME/nOZs6g1zWfL4dAad3lYIIYSIk6BPnMHCVH7mdmxC+SUtvPfMUPi9r9FDh8p3n/V4Sr+O+ZNHc+PYm5j3ehYbGzyJ0RfXsuZ3bXPOo7erqLikM+zbzPLNp7stopnX32BHnU7xV8a03Wxf+VR+cW1HNi64+xQPYx3KlJ9/h/xN87mnjQ13F0IIcfxkTp84o+nxxxaG9fnNb2SvD6P6FQH7qdpyvJ3FXky4diCxtfewaOdXmH0imncmuGYwPYNQ89cXZWjb59I61u+YQL+y3gwpgy1tMTBfM4/bT8tkutXMv3316dixEEKIM4Bk+sQZrIie54eAMFVbN5zuxhy/roPpWQAYtVRvPb5N9Rg/mUHqOhYtPLuWKqi4uASdWiq3nuJ5VCJr6z+swiCf4kFZzksVQgghxHGTTN/x6HQ54388hkE9OhPUAMvgUPVW/rxiAcvW1zZ9b9ehXDe0hFD7LpT2DfHuxGksa/b5MDXbXmHh/GVsyzQ2J9iHUbdOYHi/IvJy4j9rqKVy3SIefHLd0XWavD5aei23jv8G/Qrz0eNtjuzbzpvPz2/e5nT7LSsiT4+3d+danvv19ha+KIAQpaMmMX5EGYX5ifUH9rNz40qWL3k58/GmkfetCQw4F4zK1Sz3HO4YonTEOEZXDKS4U8g9XoCGWqq3rWb5Y8vY1MJ+8wbdwh3XD6ZHQby6ZHypiB3bdqGf52fNffPTLyvQmusDoH8X8gEajiTNwQtR2LuEfD/EPtvFzuosMoBdx3FTeYgt/+VRufIEKywfw/BuQWjfhZ7ndSS/axG1r41m5tMA+Qy6+W6uG9SLgiBg1bLzxQe5b/nJCkT7UFygg7Gf3a18BhAsvYqxo0cyIPlcVb7BU3N+l/kaae05TvrcmJuv47LSpHvYMogc2MXGlYtY+Hrm76jZfRzZz871y3h4RzZH27p78YSf4017qR3di4LzyoBs5qYKIYQQ4nhJ0HeMguVTmH3z5YT2vMzSWb93S+p3H8q3bx5Hxe2PcXH3kStuLgAAIABJREFUe5mZvCB0fhe69exLt65F5Om72DZgEg9MHIj+/os88ZNX2FSt0++aKdw6+lqm/luU23+WpghFj3HMnjGSYqpY/9z9LF21mUPBIspvvJvxw6bwi07+tMsXJJYB0Pes47n/WMSqd1toc5MPj2T6XeMo9e/i9SfvYPmaKigcyJCR32H83K9gqJC+gkQvrvv5DEZ1CbNl5Xzmv7KBaoroP2IcY799C9P79mHhtHmsyTbw61RGxdhxXDewiMj255n/4DKaF5TsxZjZ91LRPUbl64uZ8/KGeMAUorD8e0y+8VqmzCtiweT06wr2uGEuMyo6U/36Yma+sJrKAxAsHMqo8d9hePlQdHaxGzw/3+rrAyg8J9+tshmpZTch+o+fwU3lvY4GBQC1u3j96TksShtQhKgYP5SC9xczx6ty5QmWX9SNnj07An7yC92HAW7LejFm9gwuYy1Lp93Du1f+gkev6UWPayYwZvm0k7QuXi8655MSNLfMXz6VuTf3Ibw59V68iskzDGbO9K6CeCzn2P3cVOZOGEjwwGZWPD6fNzfsch/UdCpj1IRbGHXzvXTrfDcz01R97PGtWdwxtg/6Ry+z6CfPsqYaCgcMpWLUBOb2N9DJcCsew714ws/xnn0cMqCgoIhBeN8/QgghhDixZHjnseg6jhk3X45/6wLunPm7oyX1P1rNoplzWFUJxRV3MyW5QtzWxcybeQd/rgboQvmEPuxecht3zXueTdVhoJYtf7iPVdsM9B5XMrarx36DQ5l690iKtV2smnMHC1ZtdjuLkSrWPH4va6ohr2wck70q0w2eyh3X9EKvXMmcn8xn1bvJbb6NhZvDFFfczdTykMeHezH+1jGUhqp4/ZfTWLSmigiJpROmceeSjyDH42Nxg+68m1HF+1k15zbm/WED1RG3zZv+cD8zn9zMoU4DGT9jHIXpNtC+jElLl7Mk8d+j0xkzqDM1m5bxxK+9s6KFN0+movv/Z+/e46K67oX/f5hhEGeCjCZgwmi5FDCdaDGoB0MkUNRfPCSEaLQp1GB+Xh6LsQeTR0k1tImp0TZykpim4eRofIKx0rw0F2tK9Wg4Ui0nVg+VR0viJSIxTBVOdJDMBNjMzPPHDMplz8hNMeT7fr3yesWZvfda+zbs715rfZcO+9Et5G8ubddCZsNS9iZr91eDMZ7pM70VOosfT4/EWraW/M3ugA/AbimleN0TrC2pRsGAcZzKqr25PoAIo+fYN7UQ8+Qr5CYbOburgKcXzuGxhcvYtK8auzGSaUvXd1m3jT75X8iIqGbnazcmkUPVtnXk5+eRn7+MpaXVnk9NZK5ZxfizheTlv0n5RbBfanEHInbbdcwkegs6HXCxtgeBRCTT5oVy+NdP8PQGlXsxKoE0tXuxl+cYZpD7WALB2lrKVq5jZ1vAB3Cxgp0vFlPVqCM8YTZmtepGL2DRnLHoz+1mff6blFlsgA3L4V1syn+CbWfwOT1Hb+7F/j/Hde7MqboAd8u2EEIIIa47aenrhWlzUwnnJDtfV3uwPklxyTFScuKJmz4LDrynsoUWqrblUaiS2W3/uToyzUaMUUCnybcTl2QTF6RQU7KB4i5NW6lEhAAYMHZ5SHUn9QhWTrLzl1tUWsVslL3+BxJfzXbPoVXWsVugfuY8kkfrsB/bTZHKHG32sgOczYpXz8Y3egEZk4w0HCpUqTPYy17lLzPeIi0qgYxxWyhUG8vWWEHh4nVXH+RHRDJx8gwezshk+YaHOP1hAevf6Zih0jjE/eirG6r+WGmvuYSdSEIiEgCVvoBJYwjTQb1NveXz9NYNlI1/gZARXb/r8/URFE/GyEuUrM1rd8xqKducR63jFVbdb2JixgLCDrzZqQVqCoseHYflj4soGcDUffo7c5l0eQv5mw5d3f99q8k7Mxaj9Tg1A1c1FTYqi1ZTVOXtXgwlZBxd7sXen2M9AToAHfrRQJee0QepvZhLXLiJOKCqw3cGMrKnEqazUbX3TfX7+NAZsuK9TFrZH/di2170xzkONBDcneV6ZQrL38glLkj92/Cc7byd0/nTakqyrlcr9CCWtJI3cuLRq34ZSc627XQ51DW7eGzlluteNSGEEFdJ0Ndjs7j3TgNYTrDD24P1gVrqc+IJHzmGZKBrIrc6ar2k8rY7WlAP3NJJNhtAOcnhrWrdvvbwx9JxPBz2BR980Omr+IcYPxKUqo+919m+i8qzmZjNdzM9CSrbdQ2cfnckOmxUle/2srJ35ox4wrBRWeEtTZ9n2oXwUCLiDXCsG2PWLlZzpKSQI/tPsLwgh7iMVazSduwOV1X4DPkHQ1E+8z02Sqf10i5y1ooNCIlIJ5hdKuMka9n+0jPouvT764frY8RwGrbnqT6Yny7azamkBZjD4skY92aHB/PohZnENX7E2gGenyvkdhvFa7sGQw1njvscbzowrnUv6jB0Cez7co7fY/3K40QE1lF1pqd1vZ/x4TpoPEZ5d6bs6KQ/78V+OcdNtut4PRykYPFBlc+zWbMtFWvh4xTcgO7P3woH1rFY7VjOfZG3ky51fGEnhBBiwEjQ11OeFiD7l76e2M5gbYTwoOHeuyz2VMIYTIHAuTPsVV3AxpGi1RxR+cacGEkwYDnnO523u2XDRFjcWDjQlmAhgYjbdMAX1PYiDXmcKRSoptbHA1b5+TpyiMQYcjeg9qDmhb2Ugg+T2Dx3LOHJ2SRua/9wYaXmWNu4NyPhqalMj59AzGgTIUEGdJ7uqF4bxM5toex0ErPN2bz2+lSqKj9i765ST/c/z7oWleC7P66PCwf4ndfAbTdVlmzM0Z0ezKMXsCgJyn+p1gJ0Y9V/vGlAWxoZcZ3HivXxHNstJ6+04OnDEkhJmUycORJTWCh6ne5qwqHOEqII0QGWWpUXSdfWn/di385xKIZAoKmFa6SOEkIIIUQ/kaCvp8KHu7uxxOfy9rbcG1dugM6doKH5Uo/HahkD3WPFFIfvFiB3ywYYAtt3ifQ8hPbqrfwUTCMAIknbtp20Hq/fDSXVWOaOJTxoDIlJUN7+gbZ9ZkVs1NecoGr/FoqqTnA2NJuXc7x0gwPAxs5fLKF+/iqyfhCJOTkbc3I2WGupPLiDjdu8ZEntj+ujyeYzcKu/7G6BuvpgbiLz8anoDhewaaAjPsDeNFDTJZyg3ppOuOEWQq5nMX0+x23ZMxMIM4JireVUVQUluyr4+6njJK7YTlq4ymptvwG2S70os3/vxT6d49Ej3dl/LT0ZeymEEEKIvpCgr5fsFRtYXNCDVql+olyuu+Flugvuy1v56zlWpq1FxUBIlAEOtLV8ZfLsz2YRrVewlG0g741OQVpod7ZtpXxzHuWbjcSlPcL05CTiRpuIezCX16ZlUl6kPi4Tend9tLWyEBzKRFBttVU3lbuidIREreTtRB+LeRLiuMfXDMbxS4c4ZVGYaDYSNg7o41yH19K73wADyUtfZF5iKLqLx9mxpoCdncYT+jqFAEpTb4K+NjfBeR8XihGorx2MM7MLIYQQNycJ+nrKkwBEN6xbUUO/098aRY+6QALWJvdUBd1la1IJ74KGE05Pu8x5klIEebJcXueH8A4tXwvS3QHfnud4uqiv88JZqSx5k8qSN91TNmQ9REq8icT5z2Kt7TT2ri/Xx6k6Gogk2DAcE96DPp0n567N2pZJcQv5Wb6SImSzZls64Z0T4gxCJX+vZrY5lpgEE1yvCdr7co6T/oWsxFB0jRVsylvX/WlK2unNb8CNvhd9STS7xwhbKmWOPiGEEOJGkSkbeuq/a6kHdMGj1VOqXy8H3OW2jVfyJe7BTBJHXv131ad12IGQsFSf6yWHhQI26j9t/zB2kNp6AAMGtdT1AAR43WbNlzZgOKHR16h0r3nGBwH15z0PwqMfYlK4DppOUNbLgG/a8hdYqDIdg91SSnHBMp58owK7LpJ70xM6LtCX6+PQcWrtgM6EeZr3xcKGGwCFerUxhddVwM3/i7HnODUKhNw5o//G03bWh3OcljwOPVB/eEvPA76234BAg/d983F+rv+92B1TSIwxwMXj7JVEKkIIIcQNc7M/wt187B9xygKExJLo6+EpaSUvPT+rHwt+l6OnFQiKYpKvoWj6dNKmxqK/0O6zfbuougj62CS8xxIzSIx1P4yVdMoMWHamFgglQnUOPyA+nggvqdHLj1ZjR0f4XeleUnoDmMhc9wo5anPeXcu0cYTpAOqobZtnIsLobtfsQZfU4KjIDunjDcMiMSfGel3eXnaIU40q2T/7dH3spuSYFTAQc1+ml+OVTsRIQKmmqsTH9nvorNXdxVAfaPK+UHw8Yc5ajvZfsf3PXszeYzYIm8wcX/dJn8ro/TkONrivl26PidObCA9ru+885Y6MJNnLzRQ3PsrrfXbd78XumDaVmCCwVBR3mBZGtDGQvPS3bN62nbdfW+71PAshhBA9JUFfj9VStPMQDYSSuCAb1Wc+fSrLHx3FqQ/U5ujrLRs79lbQgJG4Rxeol0ssmT9/BOPRYjrGbRVs3F5Bg34sDy9PVXngM2BenI5Zb6Vye2GXhzHL7z+iyg7hiTkqrYyxzHt0LHrF/a8uEyDs28T+Mwo680Ms8RI0Rs/NJUX5M0U97nIWy8IHxqIHlDOH2Nm2/tk6d7AXNAqz6oEykjh2VIe6pmVlc2+7f9dfbiEkcSGZ3h7q9aMwBoH1YnWnL/p2fVRu/BOnFdBF3696vMLmJhETCPWH32Wnl6r1hmVPBRYgZNxs9fkW9QnkzBtL/YF3b8ik731R/k4pNYoRc5qv4KYven+O6y+7g+uwCPW66c2ziGg/RcSEbLLS2hIr1bK99Dh2Irl38ZSuK0cvIGucwT1Bukal9f263ovdYSJz6hj09uOU/X6gkv1sIT/rZp6u4X5SJoW6f5tGJJAxf+xAV6j3tubx2CDvTi6EEN8kWqNx+HM3ssAhQ7x3BbwZPN7UCsBbQ73M3wbweTknNeOZPDmRlPvM6Fs+51y1lWaMhKf+mBV5swk8+Gte3PNlpxVjmfzgVCJuCcD+P3spr1E6fW9g4tSZTDYFopz/hANH6uiwRFu5CQmkTDGjV9rKNRA2KZ3FKxYyobmU37xcysVOW1ZqDnJy6CRS75vO9LuH0Xi2mppLTejDEkhbvJz59wzni5K1rNl1vuv+KiepaAjnvnsSSEiJhvPHOXG+CX1YKllPL2XSxQOcCo7m9qA7iH9gJkmjv2DPX9se6ho5/vElbr9nMpPum8GE2xxc/kctlkbFU/YqFn2/jq2/2MjpTodDb07h/vu+g8HVSM2BUk583faNkfDUH7Jk2UImhWpR6g9S9Ny/c7xt/csnUb6TQrzpViLuNuOsrfTUN5bE9P/FkqXzmWxowhlkgAt/48NP7uaRe/0o+c8jNHo2MTLhASaPvoOYKSncqW/i/Jd1XGxUrpb9xAxilEreeamELqex19cHoHzC4UthTI6LJmpCCt8fauPUZ9U06kwkz/kZP3kgGqVqC78pKOtyjtUZiVuYyfTIYWg1WpS6co6ca+q62OW/cXboJO4dH8fkKdFwsZpzlkaUtjr/70e4/ZMtrPvdSTrvbpvoex4mJcKAn/Vz9n9c63U5n/RxJKfHEaLtfM574HIlnwffS8o94zDV7eLQ52oL9dO92MNzfOb8MCbcM4YRd5iZcNslqj6pplExEp4wnTkLVzB/Rji6VgOGQDs1fzqA8v/N4M4v3uPgKff6yqkjNH4nhcRJ95IU6eL8p59w4WsDYcnZPP2TyVz8ywmM0Xegv30S6Q+kEHa+hCNX4qve34tt+nKO9WlP8ZP7bqPmg5VsOtarq+Nb4HukzBzHCM+0HfZzZez56wAl7/qG69bfciGE+BbxC4+Ict3IAocFdT+hyEDYf8n9lJkyfOg1l9WbZ7Eoayrm8FD0nj/SirWWypLX2fBhp7FkSSt5Iye+49v9ml08trItAYcn2Ub7770k3tCbZ7Fo3j8Td7sRnefvmdJYR82hYl7Z7GUqAY/gxGwWZSRhDjO6p2JwKDRYjrF/x6vsOOx7Socr5bata6+jam8hG94xsui1eYR8+if2lp2k9stqTls6b8tI4vxcMiaOIczYVmkb9WcOsG39mxzp0Hykciw6cygojXVUeZ0+oS0tfvzV8jz7+pedhRSXhzL72VVkjDFAU13XTJxZL/Ba3FccrbITMm4sMSONV+dPa7JiqfwTRRvfo8pHs1ePro/O2qabiApFr2u37p5NbNx5/NqtbWrXWzveMk+q1dlef5Lyd9ZTVN61s2zmOi/TC1xx7WyRicvfIife9+9CzzNlxpK57jnS9IcoyN3QsfW6v+/Fnp7j9lOJtK3TWEdNxS62v72bs5NyWTNvCiGBYD/xHutXF3eawqPrtW2vP87eNwrYcWsOr2WG8ve9uyk7/QXWz05i6XKx9ORe7J9zjD6V5S/nYL5QzNJfvHfTtxYPnHbZXRtPsnP9M+y4CaZh+Sbqyd9yIYT4NpCgrxP5QyHEIKFPZXlBDhFnCskrKJVAY8AYSMv/LZlhJ9i0vHcZS4XoKflbLoQQHcmYPiHE4GQvpeClXVjHLWTVXO9JecT1FT33WWZH1LLzJQn4hBBCiIEiQZ8QYvA6vYW1v/4IEjNJG+i6fBuNyebxSQolv5JuikIIIcRAku6dnUiXECGEEOKbTf6WCyFER9LSJ4QQQgghhBCDmAR9QgghhBBCCDGISdAnhBBCCCGEEIOYBH1CCCGEEEIIMYhJ0CeEEEIIIYQQg5gEfUIIIYQQQggxiEnQJ4QQQgghhBCDmAR9QgghhBBCCDGISdAnhBBCCCGEEIOYBH1CCCGEEEIIMYhJ0CeEEEIIIYQQg5gEfUIIIYQQQggxiEnQJ4QQQgghhBCDmAR9QgghhBBCCDGISdAnhBBCCCGEEIOYBH1CCCGEEEIIMYhJ0CeEEEIIIYQQg5gEfUKIwS06mzWvP0vaQNdD9MzIWTxb8Cxp0QNdESGEEOKbT4I+IcTgFZ3Nmp/PgPJiSga6LqJnLrzH744amP3USpL1A10ZIYQQ4ptNgj4hxOCkT2X5U+kYj21i7daTA10b0Qunt66m6OwY5v08G2nwE0IIIXrPf6ArIAYDA2HJj7Boeih78wso7/P2prD8jVzignws4lCwX/yCqtItbNx5HHufy7z56M2zWJQ1FfPoUPQ692d2SwU7/20dJad7sqVY5v36OaYZj1G4eF3H85O0kjdy4unQkNJY0WW5xOVvkRNvuPpBzS4eW7mlh3t0LQbCxiSQnP4QKREXKFq6rg/XkonMVQuJUw5SUFA6KK8PRkQycfIMHkhLQvdxFvlbB7pCvRc8Pp2szHisT6+muMM3Nspe28Kkl3NYtvwL8gbruRRCCCGuMwn6RB90Cs4aK9jbL9s9SMHig+jNuazJn0JI00l2LH+GnRfd3+rDEkhJf4i0xFgmPvosMTGFg+5hMHrOC6yYGYtyYhfbVv+BsjNWgsfn8mzeFDJ//iLB+XkUn+vetsKyFpI8WgeNKl8eWMfiA0Zmr3mdjCgd9QdWk1/YNYguL3iccn06K1+dQf2vnmBTj4JO37oElACNF/q0zbCsXKZH2ThSuIHKPm3pZpPNmm3phHf6tGZA6tJ3meu2k3ZlZ6rVu+DaS3l9ZxIvz81mSfIhCspsN66CQgghxCAh3TtFHxykYPEcHvvFbixK/2/dXnXJHXwoX1F/sd3nlkOUvPEMS39ZSj0QHJ/Jovj+L3+g6Ge+wKqZkdTvWU3e6i2UnbEC0HD0HA0KoItkUsbYbm5sFovuj0TncyErFmsLAPZGH62m9kso9V9Q1Y8BH7gDysey5rj/W7iFqqY+btCzz5z+ExsP9EsVbyJbyG87VllzWF1WN9AV6pPilXN4bGEhlWovJNqxl2yi3GIgbtZC4m5M1YQQQohBRYI+0XenT1Df1wf1XpW7hcM1AEbC400DUIHrQD+LFQ/HorN8xOtFnQOwOqw2ABuWT493Y2MGkpc+RLilmvrrUdfrwX4JpY8vEOLmTyVaZ6Xyg/cGVeuvmtO2QdDqZS+l9uK1FqqlaPdx7CEJzJk7SO51IYQQ4gaSoE98g9mo+dL90GswRg5wXfpH2I/uI1oHNUd/j6XLtwfZsGQOj2U9TsG+bmwsKYc5d1kpe3NwjnlUN4O08aFwoYLtFQNdF9Gv9n3EqUYd4ZMzpbVPCCGE6CEJ+sQ3ms5zBSuO69C/9IYbS0acCaijtrKvLTixLJyVQMuB1ynq5+6YN7WZScToof7vf1AJmsU320HKT9lgxBhSBlF3biGEEOJGkKBPfIOZiLnDANioPXZooCvTd6OTiAkBFCuWY33bVPS8JSRqDlK06ds1VUHaXZHosFJzrHagqyKug/LPalEwEp7YzTGtQgghhAAke2ffjJjCvJ9mkhgdil4LOBQaLMf4y85CisutHZcdncrs1EgMQaMwjzNwdHEexV3Wt1FftYdNG4qp8tUfTz+WjEULmR5nIjjQ81mTlZqDRazffJAGX6uaZ7Fo3j8TF2ZE56mz/cIJ9r+3oWudvZUbbyJY56nv6QPs+M2JaxwoAAPmjBzm3R9PmLFt/oE6Th/exfa3d/veXy+CH1zIpJGg1JSyXbW7owHz/dnMSUsgfITBvb8ATVYsVaVsf72YI9coNzhxAcseTSI6xJNd0jNVxKmqanS3B1C2eoP3aQV6cn0ATByFEaDpq3Zj8AyEjYnEGAAtX1Zz2tKNFsDR2TyebKDy/1z/zJVhyZlMj9BD0Chibh+OcbQJ6945nukDjCTOX8HsxFhC9IDDyuk/rGf19usViI4lPEQHSh1nfb0DGJ/OvLhQaHcv7py0gBVz251nex2ny4t5xcf9pDfPIGtOOpOirk6p0XaO9+94lR2Hu56rjtkqAWxUFj5OwQFQz8xZTUlWXqdpDPqo830MKI21nCrbwevbfP1+GEnMyiFjyrir9zCgNNZRU7GL372xG9+Nyp2vB4UGSwV7iwq7X/cjX2CdE0vI7fFAd8a1CiGEEAIk6Os1fXIua+ZPwXBuN9uefdedUj8qlYfnZ5O29HXuinqO/PYTQhtHEREzjojRJoJ11VRNyuHXixPQffoHNj69hyMWHXEzc1k0ZxbLf9bM0l94SUIRnc2aVemEU0v5jnVsK6mgQW8i+bEVzJuWywsjArxOX9A2DYDu3EF2/GsRJUevUecOK6ez8qlszAHV7Nu8jO1ltRCWQEr6I8x7cTKKBvDawzKW2c+vImOUjcpdG9iw5xAWTEy8P5ushxewctxYNuUVUNbdwG9EPGlZ2cxOMGE/8R4b1herPGzGkrnmOdKiWqjZt4W1uw95AiYDYck/Ysljs8gtMFG4xPu8gtFzX2RVWiiWfVvI/6CUmougD0slY94jTE9ORUc1Z0F1/R5fH0DYrUZ3lk27lbMYmDhvFY8nx14N7AGs1ezbupYirwG6gbR5qYR8uoW1NyBzpdEUQUzMcCAAY5g7iHDXLJbMNau4lwNsy3uGo1Nf4LWZsUTPXEjm9n4OYq6IJdRIp6BZxW1RxMTEEhIVip5qqpJX8uJjo6gt3cLTH5R6rs2FPD4rl5djoli7ckuX68t9bUSinNnNtrW7OXyiFjvu62POT7PJePIVTIWL2NDpHBSvnEPJ+BxWPZlKGNXsfDKPHVeSmGwhP+tdJj75CrmToHLzCgr2XeNFTE9FZ/Lsz2YRraml/B3P78eISJIfziHrwVxeNkexNr/r/qJPJffFHCYG1VH5wQZeLztEzUUAI3Ezc5j38AJWjQ4lP3+LerdafQILn88lOeQSlR+sY/X7nnJnZJPx1CsEOLpZ/3MXaFAgJMREIur3nhBCCCG6ku6dvTE6m1XzpxBwrJAn89+8mlL/TClF+WspqYHwtBXkJrVb59gWCvKX8RcLwCiSF47l7NtP8FTBexyx2AArle+vpqRKQRc9lazRKuXqU1m+Ip1wbTUla5dRWFLhfitvr6Xsjecos0BwfDZLklTWTVrOspmx6Gp2sfbpDZQcbV/nJ9hUYSM8bQXLkw0qK8cyb1EmZkMt+36VR1GZ+wHXPXVCHk++fQYCVVbzSHxyBRnhdZSsfYKC9w9hsbvrfOT9deRvrqBhRALzVmUT5m0DQfHkbNvO223/vbaSzMRQ6o8Us/E36q2iYfOXkBalw350C/mbS9u1kNmwlL3J2v3VYIxn+kxvhc7ix9MjsZatJX9zqecBF+yWUorXPcHakmoUDBjHqazam+sDiDB6jn1TCzFPvkJuspGzuwp4euEcHlu4jE37qrEbI5m2dH2Xddvok/+FjIhqdr52Y+YtrNq2jvz8PPLzl7G0tNrzqYnMNasYf7aQvPw3Kb8I9kst7ncCdtt1zCR6CzodcLHWdzCwbwP5+U+wvwZgFMlZw/nLr55g3bbSdtfmavLeOwnh6Sx7ckrH9UcvYFFaJLrGCrblv0mZJ+AD9/VR9MtSajASN32WavENRwspO6WAzoCxy+1mI0Crw37s3f4P+JhC7lOziNZ1+v24WE3Z5jyefKMCe1Q6y5anou+05rTcbCaOAEtpHgXvH7pyP7h/t9ax45gNXVQCGWr3AwaSl+aQHNZC5eY8Ct5vV+621Tz1qwNYffx+dFSHrQnQBbhbxYUQQgjRLRL09cK0uamEc5L9r6s9WJ+kuOQYdh8PfdBC1bY8ClUmGd5/rg4wYIzqulbikmzighRq9m6guMur+FQiQnCv2yVgdCf1CFZOUvJLlbf42Ch7/Q9U2Y2q82DpZ84jebQO+6e7VZOC2MsOcNbbPFujF5AxyUhDxe9V6gz2slf5Sw0+HhiBxgoK281N9tjSPDZsPYBizmT5hrd49tGxXR5SjUPc3c90Q9UfDe01l7CjIyQiQb3MpDGE6cBuU2/5PL11A2UWA4YRXb/r8/URFE/GuEtdguSyzXms3+Me0zQxY4FKkDyFRY+Ow/LHAkoGMF2n/s6U1NTPAAAgAElEQVRcJl3ewupNh67u/77V5OWvJj9vNd1JPHrjtFC1bbX6tfn+n6hqhODx/0xG+y+Mt7hbZANvUQ887GewNoLutigmeim15OMT2AklZnrn6QemkBgDZw/v7vmuXEP0wkwmGhVOf+hlf8tepaTKRnD8I8zrlCjFEBAAgE6vPl1C+fk6IBST2j0cv5CM8QawHGCb2sTqp7fw955m3Qk0ENzDVYQQQohvMwn6emwW995pAMsJdnh7sD5QSz2gGzmGZNUF6qhVe/gB7I4W1AO3dJLNBlCqObxVLUnFHv5YepyaY7v54INOX8U/xPiRoJz62Hud7buoPKtAyN1M79SKNP3uSHTYOFXe8wdRc0Y8Ydg4W+Etf37btAuhRMSrtTKquFjNkZJC8p8spLLRQHTGKlZldXwYrSp8hvx1z5C//j2fm9JpvUxbftaKDQiJSPfycFnL9peeYWNZ58/74foYMZyGXeoP5qeLdnPKDoTFdwmSoxdmEtf4Eb97f2Dnbgu53cY+lZbGhjPH27UQ3Sy834twkFMXFNCZiGl/oo5tYHX+alavXMtOX5vW6gjw9t2+jzjVCGHjHuoYvCclEaOt5nC/R8bxPDA+FJpOcHi7t/21UVJRjUIo41M7tm7uXL+C1evyWF14jfGYKn9RzImxhACWY2rTkPRSk83n2GUhhBBCdCRj+nqqrQXoyzM+FnK/6Q8PGu69y2JPJYzBFAicO8Ne1QVsHClazRGVb8yJkQQDlnOlPovYf66OTLOJsLixcKAtSUICEbfpgC+o7RLgXFucKRSoptbH+LLy83XkEIkx5G7gYPc3bi+l4MMkNs8dS3hyNonb1rXr1mel5lhb9zgj4ampTI+fQMxoEyFBBnSe7mReG8TObaHsdBKzzdm89vpUqio/Yu+uUk9XXM+6FpXguz+ujwsHfARuu6myZGOO9gTJxzzLRS9gURKU//LNayTTuP7qP940oC2NjOi/8V71l9VfwjScOX4l6AiOSiVlegLjo0YRFjIcfaDnRYK31m8ADrK3ah5xCWPJGAeFnmytiQlj4LPf939r6LgkwkcA575gv6/l9n9B/dyxhI2egJmDVLV9bq/ldFtGWb2JiSlTmRQ3lojRowgx6Nzdar2Iuz0UsFF/pj9eRoRiCASaWujvzq9CCCHEYCZBX0+FD3d3JYzP5e1tuTeu3AAdOkBpvtTjsVrGQHcLmuLw/dDlbmUEQ2D7Tms6d9bLXr1Zn4JpBEAkadu2k9bj9buhpBrL3LGEB40hMQnK2weX7bNnYqO+5gRV+7dQVHWCs6HZvJzja7IvGzt/sYT6+avI+kEk5uRszMnZYK2l8uAONnrLctgf10eTzWfg5g5EdO2CZBOZj09Fd7iATQMd8QH2poGaLuEE9dZ0wg23EHLdy+qYidJeX82pqo/YtvU4pz4LJevl3GtOIF5Zepz6hCnEJI+FY8eBeCZFwNkP+r9rJ0Y9BgCn4vv3w664x14G6rt0XW3L/DtxtNE9rcinxzn64btUfnqCqsRVvJ0Wqb5NLYAN69k+7wWMHunOOGq5xrhNIYQQQnQgQV8v2Ss2sLigB61S/US5XHfDy3QX3Jc369ch7fwVba1mBkKiDHCgreXLk6VQr2Ap20DeG52CtNDubNtK+eY8yjcbiUt7hOnJScSNNhH3YC6vTcukvEh9XCb07vpoa/EkOJSJoNpqq24qd0XpCIlayduJPhbzJMTJAa7vORkohzhlUZhoNhI2DujjXIfeebLRRhtQzpVSmFdIeYduq926uODYDqouTCH5zhnEcZzK+FRiAqv54OYa9AhczUYborFS9c5qNuw83jF49HXdAWDDdq4fKjIuFCNQX+utu7gQQggh1EjQ11M1l7ATiW5YNx/s+pn+1ih61AUSsDa5pyroLluTSngXNJxwetpl7iC1F3OJC/JkubxuD+FuHVq+FqS7A749z/F0UV/nhbNSWfImlSVvuqdsyHqIlHgTifOfxVqb13HsXV+uj1N1NBBJsGE4JrwHfTrPuCmbtS1b5hbys7b42LBn/rfGCgoXrxvULSQlf69mtjmWmAQT9OcE7c6r/xs2dyFp0QaUc7tZ+3RfutPWUnKsluRpY0iJB5LGoPvs3euT6MZqxwZdEh551WRv95JnCkuyphCis1H5xjIKvI6B9CUUUxLQx2lEEs3u8cWWSpmjTwghhOgJSeTSU//tScIRPBrzjSzXk/yjbbySL3EPZpI48uq/qz6tww6EhKX6XC85zDP25tP2D1QHqa0HMGBQm0YCwHu6Ck+SluGERl+j0r3mGeMD1J/3BMOjH2JSuA6aTlDWy4Bv2vIXWKiSidBuKaW4YJk7vb0uknvTO2X/7Mv1ceg4tXZAZ8I8zftiYcMNgEK92pjC6yrg5v/F2HOcGgVC7pzRD+NpDcSEGIA6aq+8sDCRNiESHQqnyvo+ftLy+wpqMBKTlE5KjI5TB69D106AYyeotwMjTF6SS3kkmwgB7OdPXB3PlzYVcxBw4ZB69s1rOFVnBQLQBXlbwkBAt66rKSTGGODicfbegDkohRBCiMHkZn+Eu/nYP+KUBQiJJdFXIJO0kpee9zZlQ2+8y9HTCgRFMcnXUDR9OmlTY9FfaPfZvl1UXQR9bBLeY4kZJMa6H6hKOjU1lJ2pBUKJUJ3DD4iPJ8LLA1350Wrs6Ai/K91HK4OJzHWvkONtygZfpo0jTAdQR22l57MIo7tdswddUoOjIjtk6TQMi8ScGOt1eXvZIU41qmT/7NP1sZuSY1bAQMx9mV6OVzoRIwGlmqoSH9vvobNW98O8PlA9JT8A8fGEOWs52n/F9j97MXuP2SBsMnN83SdXBBDg7cIc/SPMo4GL1ZRfCfoiMeoBWlB8JmppZ0SkO4mKan3d93XwxGwm6k50HJParzzXVtAYEn28UJiWOAY9Vqr2tAs+RxjcU1Q02bqZfdNAWJTpyvV75NgX2NERYZ6ivrj+ISJu78Zmp00lJggsFcVUXntpwETm82955vZcTnK3mzmFEEKIwUeCvh6rpWjnIRoIJXFBNqrP9fpUlj86ilMf+J4uoGds7NhbQQNG4h5doF4usWT+/BGMR4s7dRGrYOP2Chr0Y3lYZeJlMGBenI5Zb6Vye2GXByrL7z+iyg7hiTkqrYyxzHt0LHrF/a8uSfz2bWL/GQWd+SGWeAkao+fmkqL8maIed/+MZeED7jn6lDOH2Nm2/tk6d7AXNAqz6oEykjh2VIe6pmVlc2+7f9dfbiEkcSGZ3gI3/SiMQWC9WN3pi75dH5Ub/8RpBXTR96ser7C5ScQEQv3hd31PF9BDlj0VWICQcbPVE5DoE8iZN5b6A+/ekEnf+6L8nVJqFCPmNF8vGtqYSHxKbVqOWDKXTCUMhdMftb8nqqlvBDAQZlZ/KRCcOIGw9pONp2WTNdlb+TZ2/K0aRQv2Uweua9fbyo3FVFoNmGetVA2A9OYc0sYZaKgoZmP7IXPnbe5zPjKSNLUDqh9LRkT77sx3k5X10NVEMPuKOXwB9OMeIrNLbwEDyUunEA74DMAxkTl1DHr7ccp+390W7qncFe25h0YkkPYjHy80hBBCiEFOazQOf+5GFjhkiPeugDeDx5taAXhrqI8c5J+Xc1IznsmTE0m5z4y+5XPOVVtpxkh46o9ZkTebwIO/5sU9X3ZaMZbJD04l4pYA7P+zl/IapdP3BiZOnclkUyDK+U84cKSODku0lZuQQMoUM3qlrVwDYZPSWbxiIROaS/nNy6V0ng5NqTnIyaGTSL1vOtPvHkbj2WpqLjWhD0sgbfFy5t8znC9K1rJm1/mu+6ucpKIhnPvuSSAhJRrOH+fE+Sb0YalkPb2USRcPcCo4mtuD7iD+gZkkjf6CPX9tezBr5PjHl7j9nslMum8GE25zcPkftVgaFU/Zq1j0/Tq2/mIjpzsdDr05hfvv+w4GVyM1B0o58XXbN0bCU3/IkmULmRSqRak/SNFz/87xtvUvn0T5TgrxpluJuNuMs7bSU99YEtP/F0uWzmeyoQlnkAEu/I0PP7mbR+71o+Q/j1zJsj8y4QEmj76DmCkp3Klv4vyXdVxsVK6W/cQMYpRK3nmphC6nsdfXB6B8wuFLYUyOiyZqQgrfH2rj1GfVNOpMJM/5GT95IBqlagu/KSjrco7VGYlbmMn0yGFoNVqUunKOnGvqutjlv3F26CTuHR/H5CnRcLGac5ZGlLY6/+9HuP2TLaz73Uk6726b6HseJiXCgJ/1c/Z/XOt1OZ/0cSSnxxGi7XzOe+ByJZ8H30vKPeMw1e3i0Ofqi42b9kNijHVYGuN4OPXWK/dEcFQqP/rfS7k/Ukt9+SbWbGm/z42cag7nvrtHMSJyAnc6azn26T9o1puITprJ/J88yWOTh9LkGobB9Q8qPzzO+Jn3wZ5SKi57qe+nBswPRFP/4auUe6mrN23HXPX3ojOlmvITQ5nwgxRSp09imP00Z6utNOtNTHxwKbkLEzHW7GL9mg9o31GAM/8g6O77iAm5gzsn3ob1+CfUNCoERyUw9YdLyF04g9FaBcMtgdjPlFCuPMj079Ww889tXau/pOKzoUyYksCk5EkMa6jiVE0jyoh4Mp54mlkjDnGocQwRxmFE/fNM0uMC2FnWccyePu0pfnLfbdR8sJJNx7p7ZX3NyIn3EWPUAqC11fLhwZsgva24Ibr1t1wIIb5F/MIjolw3ssBhQd1PKDIQ9l9yP2WmDB96zWX15lksypqKOTwUvfu5AsVaS2XJ62z4sNNYsqSVvJET37HloWYXj61sS8DhSbbR/nsviTfaUqfH3W68Mj+W0lhHzaFiXtnsZSoBj+DEbBZlJGEOM7qnYnAoNFiOsX/Hq+w47Hu8zpVy29a111G1t5AN7xhZ9No8Qj79E3vLTlL7ZTWnLZ23ZSRxfi4ZE8cQZmyrtI36MwfYtv5NjnRoPlI5Fp05FJTGOqq8Tp9gwJyRw7z746+W59nXv+wspLg8lNnPriJjjAGa6rpm4sx6gdfivuJolZ2QcWOJGenZZ4AmK5bKP1G08T2qfDR79ej66KxtuomoUPS6duvu2cTGzpkT1ahdb+14yy6qVmd7/UnK31lPUXnXzrKZ67aT5vNEXTtLaOLyt8iJ9/270PNsqLFkrnuONP0hCnI3qHYHdNe9mpKstdTMX0XWlEiCPS10irWasq1rVfcZVO4F3Oen7XoMmfMCKx6KRa9VqC/fRL7KZPVXjM7hpXwjO7qVZKcb98a1jvmIKWTOn82940zu6Q/a6l5WzOvvHPJSz45TVLhXslF/5hAl27ew72wCOS8sJHGkDhpPsnP9M+zoHF+1n0JFi3vah/J3WfvGbtLWvMV42wHKSg9xtv4Lqs60O+76VJa/nIP5QjFLf/FeD1uajUzLW8+88cYBy7gsBkZP/pYLIcS3gQR9ncgfCiEGCX0qywtyiDhTSF5B16DratA3sFNXxOVuZImuSAISVQbS8n9LZtgJNi1fR1lv+hYnr+SNxeM4uzWLdf04Dlbc3ORvuRBCdCRj+oQQg5O9lIKXdmEdt5BVc70n5bnR9OYZZM6c4hlHOIM0cwtHSyXgUxM991lmR9Sy86VeBnwYSEsag77+ECUS8AkhhPgWk3n6hBCD1+ktrP21jlVLM0nbupqrz/2xnqk+QomYZoR93c3z2lcJLFq6gIlGSJkwgcPKWEynitkgc413NSabxycplPxKpatotxgwz3uW2TF1lPxSvYuvEEII8W0h3Ts7aesSIoQQQohvNuneKYQQbtK9UwghhBBCCCEGMene2Ym8FRRCCCGEEEIMJtLSJ4QQQgghhBCDmAR9QgghhBBCCDGISdAnhBBCCCGEEIOYBH1CCCGEEEIIMYhJ0CeEEEIIIYQQg5gEfUIIIYQQQggxiEnQJ4QQQgghhBCDmAR9QgghhBBCCDGISdAnhBBCCCGEEIOYBH1CCCGEEEIIMYhJ0CeEEEIIIYQQg5j/QFdgIOy/9PVAV0FcQ8rwoQNdBSGEEEIIIQYFaekTQgghhBBCiEHsW9nS10Zak24+0gorhBBCCCFE/5KWPiGEEEIIIYQYxCToE0IIIYQQQohBTII+cXMaOYtnC54lLXqgKyKEEEIIIcQ3mwR94uZ04T1+d9TA7KdWkqwf6MoIIYQQQgjxzSVBn7hpnd66mqKzY5j382ykwU8IIYQQQojekaBP3MRslL22haoR6Sxbnoo0+AkhhBBCCNFzEvSJm5u9lNd3HkcXn82SZMNA10YIIYQQQohvHAn6xA1lXvpb1szt2Tr2kk2UWwzEzVpI3PWplhBCCCGEEIOWBH3ihgrR96a1rpai3cexhyQwZ66p3+skhBBCCCHEYCZBn7iBxmI29bKL5r6PONWoI3xyprT2CSGEEEII0QMS9IkbRp/2CONDerv2QcpP2WDEGFLi+7NWQgghhBBCDG4S9IkbwEjczJWseXRsnzJwln9Wi4KR8MSx/VYz0TfjW5280tjMTuvX/O5yM3rXjSlXA2Q0O9jY2MwuaxPP2lpuTMEDwOBysf6rFp7zso/RDhe//qqFDxqaKG5owuS8QSdBCCGEEN8Y/gNdgW+y4MQFLHs0iegQT5dFh4L94hecqqpGd3sAZas3UO5t5RFTmPfTTBKjQ9Fr3es2WI7xl52FFJdbfResH0vGooVMjzMRHOj5rMlKzcEi1m8+SEOHhU0kPzqDiEDQh43BdOtwwkZeYu9jeRSr1cN6kp0vPcOO02oFGzBn5DDv/njCjDr3R/Y6Th/exfa3d1Nl77z8FJa/kUtcUMdPw9O283Za+0+qKcny1MeXI19gnRNLyO3xwPFrLS2us7sVBy9/1YITOO6vYYQLNLgAv+te9uNfK2Q3tWIDTvprGDqI4xx/F0xSHDSoHNZwp4vCy03ogE/9NehcoHPdmHMghBBCiG8OCfp6KXrui6xKC8Wybwv5H5RScxH0YalkzHuE6cmp6KjmLKgGffrkXNbMn4Lh3G62PfsuZWesBEel8vD8bNKWvs5dUc+Rv/Wkl4KzWbMqnXBqKd+xjm0lFTToTSQ/toJ503J5YUQAeQWlXI2/hhMWPoaYYYBuOGFhRnRcurqtnyVBeRF5q//G9Oc3khEdS8bj2ezI39Kp4FhmP7+KjFE2KndtYMOeQ1gwMfH+bLIeXsDKcWPZlFdAWYfA7yAFiw9e/efcF3k7LZKakjnkb+3xIYdzF2hQICTERCLqx1bcOIuaWgFYZwhgb4D2hpV7i8vFj5tbaQEWBQdi0Xx7A5x5X7eiAzYN9WdroG6gqyOEEEKIm5R07+yVWfx4eiTWsrXkb3YHfAB2SynF655gbUk1CgaM41RWHZ3NqvlTCDhWyJP5b1J2xt2q13CmlKL8tZTUQHjaCnKTVNbVp7J8RTrh2mpK1i6jsKTC3apnr6Xsjecos0BwfDZLOqx7nOIX88jPzyP/6UXsrblajzUr4jn7xjLyNx+kARvWr93dx+y2ui5FJz65gozwOkrWPkHB+4ew2N3lHnl/HfmbK2gYkcC8VdmE9ep4dlcdtiZAF4DxupYjrkUDfNfhwgWU3cCAD+A7Dhdal7tl69sc8AF8t9UBwH8GyPs7IYQQQngnQV9vJI0hTAd2m3pr3OmtGyizGDCM6PrdtLmphHOS/a+3b41rc5LikmPYMRI3fVaXbxOXZBMXpFCzdwPFXbpfphIRAmDAOPpaO2DgrsUJWLc9w6bDtiuf7lu3jPx1eeSt291x8dELyJhkpKHi9yrlgr3sVf5SA7qoBDLUAt3+Fmgg+AYUI7zzB4a4XDT7wY0eTXeLy92X0/btjvcAGObp1vrVwFZDCCGEEDc5eT3cG2et2ICQiHSC2dVpDB1ALdtfegadpfPns7j3TgNYTrCja8TndqCW+px4wkeOIRkou/JFOslmAygnOby1VmXFPfyxdBwPh33BBx9cawdCCWnawtoyW6fPrdQc6zqe0JwRTxg2KisqvGzPRs2XNggPJSLeAMc6b7efNdlUjnnvaVwuJrY6fS5j9/PjuH/HdyQal4vxrU6+53Chd7lo0Pjxf/01nNBqGNfqJNDl4jN/LV+qBCdGp4tYh5Ov/fw45q/h7lanZyyWOgd+fKrTcJfibtk5rNOitvR3HU5udbqo1WqobdcKFtPqJNbhZKTTRaOfHyf9NVT6q7/z0QATWp181+EkyOniS40fR/01nNG6l5/Urq4aF/yTp071Gj+qPcsEAPGKA5PDhdHl4rxWw3/7azjvo2XuVhcktbQS4gKLH1T5a65sD9zBnrnVyRiHu+zhzqtlN/v5McTl4oJWQ02nMm5zuohyODmv0fC5tuN3JqcLk8PJ51p33Ya54M5WB1/5+VHlryHC4WSi4qRO48efPS2afsC4VieRDichTvgfDRz313Jaq75vOmCy4uA7DheBLhd1Gj+O6LT8Q+VYmJwuJitORjidXNRoKNNpUFS2+X3P9dXWoXOCw8lXDris8eNTrbzLE0IIIURHEvT1xrktlJ1OYrY5m9den0pV5Ufs3VXKEcvVYMduUQnM2loIvzzjY+NnsDZCeNDwjl0lE8ZgCgTOnWGv6no2jhSt5ki3dqCOw0W7VFoa1cWZQoFqag94X6b8fB05RGIMuRs46H3BPgnFEAg0tXCNVDc94u/nx4tf+W6vKtVpOX5LwJV/mxxOVtoVxqoEi3OCA5ne4iC9uZV3A/35zdCuY61mNzuY26TwbqA/x/w1PGNr4TYfWRdPajU8oRvCM7YWgl2wJGgIVZ2CNj/g+a9aMDldLAkaQq3Gj2Cni1/ZWvieSj33B2h5Xq/D6Xc1+BjpdLH2qxa+6+i4vM3PjweM7qxBLzQ203YkAuDKsftjgJb1hgASFQcrbArDOwWxLX5+FAz15z+GdP3ZSWlxkGdv6ZL9850h/mzU62jF3a2z/Xm60+G88u//DNDygxYHf/PX8GTQkA7b+FFzK7ObWqnQaXmq3TkEWPS1QkqLg2VBQziv8SPKs81j/hreD/Qn/6sWNMBZrYY/B2iJcDh53tbCdxwdK+pCYVugPxs7nes7W52strUwstO5/cTfQU67evoBGc2tLLUrHX6UF/nBSyrXzwp7C6Pb1eEXnuOgto9CCCGEEBL09YqNnb9YQv38VWT9IBJzcjbm5Gyw1lJ5cAcbt3XOoOkRPtw9ZUF8Lm9vy+1ZkQE6dIDSfKnbwZqv+tvOdXfZKZhGAESStm07adda/HoaPZJgHWCp7dckLq0uF78ydH1QjnY4md3Uypd+8Kr+6oP3HU4XbzY2E+iCAzotHw7RYtFouMPp5IEWBy5gd4CW9OZWUppb+W2gf4fAyg+Y2uJOgrLL03r026E6OoYqcKvDyaKmVlr8/HjhlgAUYF+AlkeaHUxVHF2CvjtbnZicLqq1Gj7xfHcLEOVwsSXQn7/ptHyh8SPC6SLP1kJKi4O/6rSUtBuT90tPwPduoD/vDfHHAXzH4WRai+PKMgWGAAJcLpbbFRTgXz3Hrq1lMbbVSaMGNgYGcEqrodEPftDiYPHXCk9+rXAkQMvFdsfjBy0OnrW18KXGjxf1Oqr8NYQ5XTxhb+HR5lbqNH68G+iPRePHrwwBRLU6+WFzK59pNWwPdP+EndT6MaXFwdhWp6fb6dXt36O4A9hxioOhLvja85UGdwZSm0orbqDLRa6thX1D/Pm71o/hnvgqzOnuUvm6XkeVVsMFjR/jWh2ssCv8uKmVj3Vajnm2FeBy8euvmhnmgkK9jv06Lf5AdKuTsZ2C6oeaW1lmV2j28+PfAv05qtOid7mY2dzKcnvXtr5/H6rD4IKf2low4L4+7X5+qq3KQgghhBAS9PWalfLNeZRvNhKX9gjTk5OIG20i7sFcXpuWSXlRHoVduk+62Ss2sLigd61hyuWuSVZujG5Oq3A9jQvFCNTXeutm2jtOPz92d0pGMtQFP25ScAEvGAKwegIaP+Cn9hYCXbAj0J/fDtVd6WZ5Tqvlrzr3dr7U+PGFVsMoh5PvO1wc9b/6NH5Xq5M7nC7+7q/hrKcr3n92Kl/jcvGvnkBrw1D/K10Wdwf480izQzWYnO5Z/sMh/lfqZPWDucOGUN+uK2G9xo9Ngf6stCsktjiuBH1Xu5zCa+3267zm6n4B/EeAlgBguV3B4UeXY7cvQMvWoe7WuTbFgf7EtzqZpDj4vuJkv2cdvQuWfu0OHpffEnClO2edxo9nbhnC7xqayG5S2BXoj1XjPk//5Ac/bIY6Tcey/6bT8k+Kg7hW55X6mhxOTA4nx/01jG11crfioNyzzndbnQS7oDRA26GuADEOF+8M8adQ37GV7aTWj7nDhvBVu+NeGuBPlAPmNilMVhxXgr7vOVwEu9yttO+0a92sDdBSxtV6G4D/35MJ9elbAjh6JQD14//6B/ALVwupytWgG9wvGwAW2/0wuFx8pNPS8C1PaiOEEEII72TwR59ZqSx5k4KnH2fx8kJKKmqxB4aSOP9ZMqM7LVrjbqXTDQvtdWn6W6P6VNueO0jtRcBbNtIbKNEciQ4blsrrP0dfrqf73LZAfyraBTyRDieJihOrxo83A3Wq4+oAXMCfPMHFD1o6hhRtrWa7VLo5tslqbuVuxcH+AC0l7ZY77a/hM62GW13w/Xbd+7QuSFUctECH6RNsfn4dAj5w3/RfeoKrsHbdDhWNH07cAW+S4uz1TG9faDVdgqgAwOL5tWlf5uRWB7c6XRzQaTuM3wN34HfaX0OwC253eO/62qZc515/onK1FW2y5/+3eVoE/6ldN9cJnta2/9J1/Rl0+LkD1c7+R+PXIeAD97Gv8xzj9hOjt7XIf8fp5E4fY0bvaXFgdLr4m7+mXcB31XaVegghhBBC9IQEfb0wbfkLLFQJgOyWUooLlvHkGxXYdZHcm57QcYH/rqUe0AWPxtzTQg+412WEe446X+IezCRxZE8L8K7mSxswnNDOQewNNYXEGANcPM5eH+POwxcAAA4cSURBVGML+8O0FgczWtzdJ/9Pp/FUd3ke3j/Vaq50E/TmPwLcyVZSFCdaTyzgD/xAcWAD9uvUpzoY2+pkfpOD8xo/CvQdA8u2rqPQMZic0OoOHPYHaLncqV63uuCRplaet7Xw1uVmdl/6moLGZsCdgbONDXjfE2A8/1UzrzY2M6m1d8Hf91rdXVNf/qqFdxqa2HPpazKa3cFuQLsy28bGjXG6WP9VS5f/7vAEUSYf4x3bfOw5nu2T8tyjuI/jf+m0fK71I0FxXNmfCYoTJ3RoxWxz3s/vSutuZyanix83tbLuq2a2Xm5mj/VrnrK7x9S1P56n/TX8Vacl0AX/1tjMC1+1EOvoGvyN8uxb5+66bSySmEUIIYQQfSRPE71gGBaJOTHW6/f2skOcagSdtlMCBvtHnLIAIbEk+gqgklby0vOdp2x4l6OnFQiKYlK8j3X16aRNjUV/4Ro70QPlR6uxoyP8rnT3mERVJjLXvUKOr9bAizbVTIQAGc++QKavSkybSkwQWCqKqexGnXvL5HTxlL0FG/BLQ0CXFqtbPM/0/9ONrnT1Gj+O+GsIdrqI9zzsT1KcBDtd7B3iT5PKJoJcLn5ucwcQawwBXVqVwN2S5/DrGExOa9e1s71JrU62NDTx068V7mx18oXGj/eG+POWl9aj14bqKNDrOK/xY1yrk/WNzfz75SZirpHdtL0nvlYobGwms6mVW1wuKv01FA3V8ReV4CrEE/AYHe5smJ3/a8V9rDVe21SvOq/x4zOthiiHk1td7hbLuFYn5Z5Mp4d0Wu7wZOsMwJ0B87i/hgaV8+At4PvnFgdvNTSx6GuFUU4Xp7R+vBPoz/sqrbYu4JlbAtgY6E+DH9yrOPj3y83861fNHRK73O65NrxdU85u7LsQQgghhC8S9PVC/eUWQhIXdu2+2UY/CmMQWC9Wd/qilqKdh2gglMQF2aiurk9l+aOjOPXBe52+sLFjbwUNGIl7dIH6usSS+fNHMB4tZl/Pdsm3fZvYf0ZBZ36IJckG1UWi5+aSovyZomM+tnOsDisQcvuUjp+PzmaS7ky76Sk6M5E5dQx6+3HKfq82XUX/0OHOgqh3wb/eEqCaUv+C547xlWmzvT8NcQc6qc3u8LFt3N0fVYIEP2CFXWGk08XmQG2X5CJtrBo/PvbXXgkmA11wn+Lgc63flfFkbfuz8qsWDC4Xqw0BPBocSP4tAfybXndlTF1nLtyB49zgQNbpdZzT+hHjcPGbr5qvBGi+TGx1MqeplVqthqxhQ1gUNIS1hgDeCvTv0n0TrnaL/GCojtnBgV7/UwsY1Xzs2a8JioP4Vgc64KCn+2Zbi15Cq3vqhyEuF//lZbtqIW6o08WTthacfn4sCRrCY8MCWW0IYONQHf+t0kUUQAF+N1THj4KH8rpex0U/PyYoTjY0Nl9p8bR6AvsRXo7vrRLzCSGEEKKPJOjrhRaHArpI0n7+W1ZmpRId1hYIGQlPzWbluhmEWysoUQtQDhTwyvsnUcLTWbXhWTJTIz0TjRsJT13AmlcXYvx4A4VquUra1h09g1Uvt1/XQNikWSx/eRUpjlI2FqlPGg+x7ikPGE5ognrwpq6W4rWbKK83ELf4t6xZnM5Ezz7rwxLIWP5bViVeYtuv3vOdWfTcHzhc8//au/cYKaszjuO/c9533l12ARFrNTa4aGq0CtEai2JFUNJWLGpL+aOaCrHFmlpTom0lFVNqa2JTNaklvSQiaTRiL0ZtVKo1pTYi1mtAq9VIiUoB767CzOy8t9M/3hmY3Z1hF5HFnP1+/tvJvtchhB/nOc+TqGvqfC2a+Sl1Seo67CwtvuJk9T70Bw0aa1jXdfYizeqRNt5/g1bvfevStr5VSXR0lmt1FGhNmzDwaj24HJtmO4eE787aUqCyMTo9yTXeSaclmV4MrF5uMdPtnFqm0+NM60OrVbvZ7yf1D5OfTzJ1uv4NXKSiiclE5/SKNfpH1H+uX88Qe+RSSQ92hFo4rkPPh1adTjp1QDORVo6v/85fo8Ez+Y5oUdrY6Ph57DDOPRyPho19fZmmJ7nKxujZ+ne5IbSqGaNpSaYT69db1yb8tnJMWqwQPh6aQaWYRwzxPqtG+lM9TL9ljQ7NnY6rH7Ot/mdhapvV1OOT4a+yAgAAtEKHgA/hqTfe1PubN2n9CxUdfOL5umrOd7QzI/T1auuGO3XdzXfphTYBZeOfl+ry5+fp4gtma9ZFv9DZi4rPk94t2nDPT3TTfe1CW9OxC+foCwubjt3+pl59fIWuXDlwXMQCXbvqHPX0+2yCTlr8e93W+PHVe3Xhj27d/UNX1ui3i5/Rhm8u1nknna/FMxfUL1zWW5se0W9+cIueGjKQbdEdP1uh7mXna+Ylv9TMSyRVtmjDPTfphjadTtV1pi49b4pKG+/Q9Xfvu6Hv05JMX6+l2hwY/aqr/ZyzTUHRbOOENNf3Komu7476layOq48LaEyTi43R3yOrc2uZ5vclipwbVIIpFYHoskqs901R1pm3KOts9ni9W+O0NJc1RomkBwcEVVc/xwQV++ji+s+dTlrQN7BwVep2TmNc/zLD3Bhts0bHqRhQP5RG9DlkQE45Ns01vUWwW1cK1GuNPpvmOjPJBoXtsc5pUuZ2jqAYyouhVa81xd5LY/Sv0q6mMrGkZ0KjE9JMHc5qqzV6bQ86Xjqz69lM07Me5KT5tcHv8xO5U9UUzXQaqqZYqT04d6rUP15bCvRdJTohzTUrzvqtwh6aOy2stiuKBgAAGB5C34exaqkuW7V3p6i8cJduunpgCeceHLtkuMfeqqsvGCLQDVuv1q28RutW7sUpKmu0YskarRjWL3fr7CsW6PjsGa0YahVxL0x0TlfVZ6G9b4wub/GP7Nes0e2dxUrajV2RfvdBn74YZzoqq2ltyepta3R4lutLca4FB3T0m0P3QBTq3FqmebVMVVO0+G/W4ZyWlRNFkrZYq4tbBLLt9TEKDTtn9vWlOq2W6pEoHNSy/3/GaKs1Oix3unFHrAc6Qo3LnebG2aBmL5J0UC6t+KBPD0WBXg6tysboM2mu2XGmd4z05DCC15MlqwV90txaqkTSS4HRkVkxb+6l0A4aEl8xxcy5K8uxfrwj1owo0LOhVS6jnizX7DjV/R3hsENfLumx0OqsOJOR0y2d/ffVPlEKND0pxmjcHQ1np+AuzwVWZUlHZ7l+uiPWo1GgT+ZOX+1L9VpgNHVAeeYxWa4l5UR/i6w2BVaJpFNSp6PSXP8Nii6sUjHe44+doS7sS7WsHOvkJNBLodUhudPcWqbnSlanxh/NSigAABidCH342Pr0N5Zp/uQt+svPr9M/92FZ58Jqogn1f7BPSXNNaVFmtz60ur3e/GRzYHTRAZ36YSXR55KsX9niv+slhM3+E1ptDowmZcUqX2VA4PpKnGly/RyNBiYDvW1Nv9An1Wf29aXqlnRv1HrswLLuSMsqiaamuaamxfrjw1Gg2ztC3Vzv4NlQMdK71ujLcSY1hYynS1bLx5TaNjdp9lwYaHlXpG9XE82rr35VjfTrrkjjnRsU+iRpdRToXRPp+5VEZ8SZzmi69hOloO3+w3Yei0LNiTNlplgRbVbs60tkndO60p799ddrja4ZG2lJOdaMJNOMJFNujO7qCPR0GOi6Hf3f57vGKDPS12qZpOKZchXvf/mAOYYrx5RUNkaLqonmxJnmxMW574usbussEfoAAMBeMT2TjxzRNgHjx+3JXrJ94+H3qpKkWQeO2c93goF2fjenXKJrLz1a65cv1Z0b9+01S9KQYwmc1LLz6BgnTc5yhXJ6w9qdjUnaXSNzRRhrFjipxRa/QeIWnzUKUROp7apVKGlSlmtiLm0JjF63Rla7/sen+bxG0qTM6aA8V2KMtgVW77S4N1N/pnb3NdY59WROgaSNgVXF7HrOVu+gcc6JudPhWa4d1up1K21vUVJqnVNoTNvvpN2zNezunQ11rFSUyvZkTmOd0yuh1XvGtL2nwEk9ea4Dc6lspW22dbfQ5nvrSXN1S3rFFmMjdveuh/P9AwAAEPrwscJ3AwAAAHy06N4JAAAAAB4j9AEAAACAx0Z1I5dGKSEAAAAA+IqVPgAAAADw2Khc6aNJCAAAAIDRgpU+AAAAAPAYoQ8AAAAAPEboAwAAAACPEfoAAAAAwGOEPgAAAADwGKEPAAAAADxG6AMAAAAAjxH6AAAAAMBjhD4AAAAA8BihDwAAAAA8RugDAAAAAI8R+gAAAADAY4Q+AAAAAPAYoQ8AAAAAPDbioS93bqQvCQAAAACj1oiHvjRJRvqSAAAAADBqjXjoi+N0pC8JAAAAAKPWfinvrFSrI31ZAAAAABiV9ksjlzTNtaNcVUKpJwAAAADsU+H+unCe56r2xeqrxfvrFgAAAADAe/st9DXQzBMAAAAA9h3m9AEAAACAxwh9AAAAAOAxQh8AAAAAeIzQBwAAAAAeI/QBAAAAgMcIfQAAAADgMUIfAAAAAHiM0AcAAAAAHiP0AQAAAIDHCH0AAAAA4DFCHwAAAAB4jNAHAAAAAB4j9AEAAACAxwh9AAAAAOAxQh8AAAAAeIzQBwAAAAAeI/QBAAAAgMcIfQAAAADgMUIfAAAAAHiM0AcAAAAAHiP0AQAAAIDHCH0AAAAA4DFCHwAAAAB4jNAHAAAAAB4j9AEAAACAxwh9AAAAAOAxQh8AAAAAeIzQBwAAAAAeI/QBAAAAgMcIfQAAAADgMUIfAAAAAHiM0AcAAAAAHiP0AQAAAIDHCH0AAAAA4DFCHwAAAAB4jNAHAAAAAB4j9AEAAACAxwh9AAAAAOAxQh8AAAAAeOz/y8gUblcj77cAAAAASUVORK5CYII=;" vertex="1" parent="1">
                    <mxGeometry x="130" y="770" width="593" height="171.33" as="geometry"/>
                </mxCell>
                <mxCell id="29" value="" style="shape=image;verticalLabelPosition=bottom;labelBackgroundColor=#ffffff;verticalAlign=top;aspect=fixed;imageAspect=0;image=data:image/png,iVBORw0KGgoAAAANSUhEUgAABNIAAACkCAYAAABSOwMcAAAgAElEQVR4nO3df1RUd57n/6eackxVG0q7IekiTImNmC/R0dC62ESCi2Fi0zG0RicNm0COP9bFdpoki2Y0dKsZI2Nkk9Cblc0RnUbTkD4aE2MPrV8NGwbDhtWh4xebjkKLtIEksFEMUxXaSsz3jyqUH1VQUAWF8Hqck3MiVffeT93P/bzvve/7uZ/PGOuUqd8gIiIiIiIiIiIivRob6AKIiIiIiIiIiIjcCpRIExERERERERER8YISaSIiIiIiIiIiIl5QIk1ERERERERERMQLSqSJiIiIiIiIiIh4QYk0ERERERERERERLyiRJiIiIiIiIiIi4gUl0kRERERERERERLygRJqIiIiIiIiIiIgXlEgTERERERERERHxghJpIiIiIiIiIiIiXlAiTURERERERERExAtKpImIiIiIiIiIiHhBiTQREREREREREREvKJEmIiIiIiIiIiLiBSXSREREREREREREvKBEmoiIiIiIiIiIiBeUSBMREREREREREfGCEmkiIiIiIiIiIiJeUCJNRERERERERETEC7cFugDeGDMGbrttHIbbbmPsWOX+RERERERERGTkun79Oo6vvuKrr77mm28CXRrpbNgn0saOHYPx9glKoImIiIiIiIjIqDB27Fhuu+02rl+/jv3Ldq5fVzZtuBjW2akxgNF4u5JoIiIiIiIiIjLqjB07FqPxdsYEuiByw7DOUI0ffxtjx+hwEREREREREZHRaeyYMYwfP+xfKBw1hnUizWAwBLoIIiIiIiIiIiIBpfzI8DGsE2l6pVNERERERERERjvlR4YP1YSIiIiIiIiIiIgXlEgTERERERERERHxghJpIiIiIiIiIiIiXlAiTURERERERERExAtKpImIiIiIiIiIiHhBiTQREREREREREREvKJEmIiIiIiIiIiLiBSXSREREREREREREvKBEmoiIiIiIiIiIiBeUSBMREREREREREfGCEmkiIiIiIiIiIiJeUCJNRERERERERETEC0qkiYiIiIiIiIiIeEGJNBERERERERERES8okSYiIiIiIiIiIuIFJdJERERERERERES8oESaiIiIiIiIiIiIF5RIExERERERERER8YISaSIiIiIiIiIiIl5QIk1Ehh1jfBav7sggItAFGY3mZrJjRwZzjIEuiIgMd4rVtyjFeRHxVkQa23ZtJinQ5RAZZpRIE5FhxRi/kRdXTediyT7qAl2Y0ehUASUt0az9eZpujkXEI8XqW5jivIh4IyKNbT9fBBXFlAS6LCLDjBJpIjJ8RKSxacVMWo/tJLfMFujSjFI2ynJ3UjZ2EU9lJaAOCyLSg2L1LU5xXkT6YEwg65nFmKsL2P76+UCXRmTYuS3QBZAAMYYS/+O1JAb/juy8k35YYRrbihZj7e0rDgdXW85x6lAehRWtftjm8BMUu5K1S+cx7U4zhnHA1w6uNrzLr7bv4bS9HysyJpD1cgazLh/hiY37unwUm/UrMqJNXf5mr8pjTW7nepxP1muZzJp48y8NJcvJfr3fP6kPZqwxcSQueoRYQzkrsvf1vYhH88l8ZjGWhmLWuT1hm7A8lEHWvGae2erLdoaZydEkpaYx6/JT5BQFujAdzlO4+12ifr6KTY9/THYvF1DvXfly0EqxYNLtg7buW4Zi9aBQrB7MWH3rM1oimbvgUZLip9Ly+mpyywNdooEyYYl/lNWJIRzPzqWiy2fex3kZZIrzg8JvcZ5I0nds4UFzNflrcrq0o5Eb50NJ2bSKWY6T5OaW0q/dJTJKKJE22sRt5LWM6BtPH+1Vv/PTiveRnbqPoOQXePmxSAyfnSTnuTxqXJE3aGoCSUsfYUH0DB5ct4tpU7eMsIs2E/HrXiQ9dhItFcXseqmU001gSc5i82OLyMydRP7a7hexnsWuSXGecC/3/Kwi90kqJqew7eWlWA3NVGzbQH5N9x4BJ8ldcxLjw5t5eWEzO5/O9+urNyk5B0jqfoXW4Ns6Y59OZ46pnpKcQz1O2F2213DEtw0NF4+/yP6k8Bv/bBhufebr9rC7PJrNiWtJ/+ApCvXu1tBSrB4kitWDGatvad3anJONlgAVxzfdbtzbqjju7muK84GlOD9I/BvnLamriA8zQFvPz0ZqnLekZpI41cbp/DzO+LYqL8wn4+W1xN5pwH7hCDuzNVyA3Br0audoU57DmtTlbD3WiGMQVn/18r8719t+5cYJG+DqhVKKc5/i6dfPYseANTGdZSPoXYJZ615kVex4avau5dlXj3C6yQbYaLrQig3AHE3iEi9XFp3Jsrnm3r9z+RKt7QA2WnucsG+yX71GS2O1309IxRuX80Sq679flPp+o+H6zS2n3qD4koft+WM7w8nrG3gi9UkKPhy+r0XVFRyhxhFKfNrSPl/9WTDpdr/9JyhWDxLFah/1Eatvaa4259xfT1JcMxgtb6icJHfNcp74xVGa+vgZ/Ynz4meK84PCr3HeuJTVD4Vj6O07Iy3Ou34zdb9j95D0xg0hZLJzDxvvCmfKUGxSxA+USBul6i58Nign7b7YS96ltg0whDNtQQAKMBiiM0mPDcFe/Sa5J7p1j2+9gt0BfN3MxdPerCyS9MdiGN/QeOs86a+z+VhWE8k/jiHYcZ6KvVWDuJ3hyEZZU3OgC9GLoxRWNGKIeIS1cYEuy+ikWO1HitVDE6tHBBut7dcCXQjf1Z2jpb2vL/U/zr935csB/yc9Kc77kV/jvIn4dY9gbaq/dR7k+uFaedaKhUQYWjnz9lD1Oj7Ezh17KDlWTP6GrZwYkm2K+E6JNBliJ2m8DGDANDnQZfGPBx+6j2Bs1J482vPDS/vITl/OE088RaEXT+8tqauIN1dz4Ohn/i/ocBX2E2IjDDhqP+DgLXNHOno0vVFFAyaiElPUW2FUUazujWJ1oAsj/qQ4P1opzvcqLoPl97ZStufsrfPAxGeLSJodAp9VcWAIn5fYa45SXHiICjfDJIgMV0qkyRAzMb7jqLse0IL4yVLuv8cEjkZqfe3+bFxMekIItYd/SdmI2DfeiUqOxoKD2qoRMvbZSGN/kz80gME6gyTdYY0iitUeKVYHuijibwOM83pl/1anOO9ZJKuWxnCtfNfoGjtwSRzTjNDyh3doCnRZRIY5JdJkiCVgCQbwx0luGEiaidUAtDZT69OKTMSve5RpTe+QVzJ8x8zyv1BivxcCfMzF4TbYvrjYONPYDIZw7n0o0GWRoaNY7Z5itWL1SKQ4PzopznsSkb6W2LEnKSwYSZMw9C3p3nAMtNJQ3TiEWzVjnZlA8rpMUmYO4WZFfDTqZu0Mil3JU4/FERHsmqrY0UpTdTmH9+7r0Z3UEp9C4hQjRstMZpuqWJO9r+fy9mZqjueT95s+uv1Onk/636cQOzUEo2vESkdbIzUlBew63PuyPbb5tYOrDeW8XbSPE70MaglgjFrK6vQfMsvimvrZ3kxdRTGveHOGMc4gefUqEqNDCXKV2d5ynlMlxRQdG0g3ZxNRaxYRNQGuVr3DAbfdqs3EpmaQPH8mFvPNoT0dbc00VB3h168d7WOQTjOxK9azLDaS4I6nqg4bLZfOUXNpPKFj32VrvuepxftzfABETQ1xDkBqv0JNpzJYZ96NCbA1nqXBm27KcRksv6eZ45sHezyCUOIfW8SUCWC0TCf025Ow3HmF409soBhuHqcRIRjHAa3nOfzScxwctKdxMYROBloa+zkrkImoh9JYnhTTpa4aSgvYXljZv/bURx13MEYtInX5YuZ2asN87eBqUzXvHfwlB0/13ha7b9fR2siZYwXs9ubn9qst+r+Oay4044gNIXhKDFDpTYn9YnPerxSrFavdUqwenrF6VtJKZgfTqS2+yZz0TaTG3axne8t5Kn6zk8KKVg9ruRnfrZNNzvYA0N5KU00pB3YVc7rHzu82SyUA9ZSkuvaXuxk526rIX5Pj9cx93ujRjr92YP/sHO8dyqPY4+8FJs8nZcUy7o8KJWiC629fO7BfrufUkUIKTvRxM989Bnxto6WunIP//ZzXZQ9EnO9XOw5LYFlCOKaJdxM108SHazZQ3L0dfG2jpeYYBXnFXQbX78GHOD/gOna3bH/iPCaikjNIfyj6Zsy1N1N36ggH9h/t/fd6Wl+fcX4gbbEz3+J8jzjnuuZ6/3C+233ttzgflsaT8SbO/PPgz1jZcf3CxLuZdtckzGGhtB5fTvbr0GP/fd1K3Ts72XpgsJJ7M7AGG8DRzEWvQ8BA6ziNbUWLsbY7cACGCQbAxhmvd7ib7ba30nTmHQqPG0hM/yFzwsxw6SjPPruHJqJJSr+P4AkhTJt5Ny2/+Sl5/9Y9bjq42lTO2zvyOeHpOPE1VsuIMooSaa6pkGNMNP2vfWS/XUrDZTPWhEdZnbqYjNwZWLdvoLjTRag5dArToqZiCTNjaKhmzqpXWD3PQO2/5PPssUqaJkSTvDaDZcmbWH9tNVvfcn+jZIzP4sVVMQRdPU/J3u0cLmvEPtm17GOb2DTR07TTHdM3h2A/d4SCHW9S1gSWuQ+R+vgy0jdGc2/BU+SVud9uxMObeSp1BoYLRyl89g3XsgkkJa/ixTkODOB5cNOIFDb/w1KsbVUcfnUnx081giWGxNQ0ktM3Mzsqnw0vl3p9I2G0JJC8OoWkCANNlXvYnudmWWMCmS9mMGdiM2fezmNXWaXrhGdm1pIM0n+8kk1hIWRn7/PQ3TiSlJwtJAV/zImiDbxdWs9VTFjiHyV96SLi4w3QUA+4C+j9Pz4AppgnAeCwXQEiScpcS/KcUOcJ38XeVEXJ3l9y2OONdCSrlkZjK9syBLOgTcJinc60OwDDJCwWMwauOD+KSGPbP8RBRSEbtv6exOd3kxwRSfKTaRzM3jc4xZkZ5jx5dbno6YuB+KdfIf0eG2eOdmuLD2WyybGe7CJ3T9IGVscAEY+/yKakcBwXjlK0/SinzjkHGDdaElj+92kkP/0KofmryXP7RNfEnFUvsDYhhNaqg+RuPcSZy2asCY+QujiLF/+qj5/b77Y4CHV8qZVWIDhkOoN/g2UCnANSG84oVitWd6dYPZxjdbB1OtMiQ7DeaYKGauKzXiE19GPe2/8Uh8tcx2b6Kpat28W0qe7aUyQp27aQNPUaDSf2sf1oJXVNNsCEJf4nrH1iKZm5oeSvze2WADtJ7prfY3koi83pMzBeriRvQy43xhMvz2FNuZll23aRHPYxJ3ZspbCP5HZ/RSx/gfVLIjFcOsnB/1ZIyYetBE1N4Mcr0khat4t73f7em3HHeLmKw6/l8V5lPVcBJkeTvGolySu2MCXE03kNiFjMxmfSiBpfz4m9T3HAtZ8XLH6U9Bfn4RhLLwGkkyGO8/1ux+a7mTJtJlPCQgky1FMzN4Mda2IwfPQOu589xukmA7OWZLJ6+VKy/uEvrPuF+2T3wOP8wOsYfIzzRLLs+U0k323jzJE88o5V0kQocx5KI/XHK9k4cwYFG3Ip8zLQexXnB9wWOy0/4DgPxvhMtq2Yj+nSUYo2v0nZhb73tX/ivImk9ASCP9rH9iHopWcOncK0aZOA8ZgtzoSOM0UYScq2TdxPOUUbnuPDhS/w6pJIIpasIuWA6wGB30USYgba/93LyRV8qeN9ZKfePF8lZReREuVtOU3EZ+1k1SyoOZRLrqs9xP8kk9QH09gY3cyZ0nM03RWDZeIkLEATIVinTWfaXeEEG220Bi1m44spTGl9l6KtWyi74MASn0bmigTSN4+nJbNnEtXnWC0jzqh5tdOSupn02PHUFPyU7L2lrov+VhpK95D9T0doGBdO0jNZxHZapqYoh+xny503ApaFrJ5ZT9HPfkruW5U02YHLVRze9g417QYiHkjD4m7DESvZvCKGoLYqCjY8R3GZa4avy1Uc3vYmNXYD1qRVpLgZk8JZ5hDsVfls2LqPso7pm08dIjdzCyUfm5izYjMpEe63u3r5DIyXjrIze0+nZY9QkP1Tii7Qy1TO88l8ZinWliNsfzqHw6ecZbY3VXI4dwOFVa0EzV3FptRQzzvcupj9RQdu/PdabgZJEVB3Yh95u486A083D2amMWcyNJVuIPetyk5PjVo581YOB6ttGKbGkOyp2++SdBKtVyj7pw0UlrqCGzaayvaRk7mFkgYHGCfhLk4P5PgACDI596KjHVK2bSEl6hoV/7yBdanLeWJdDgermjFYoln27GZSwtwXOyJ9LbGUs7twKJ5inKX4xQ1kZ28g+9nVHG9w/TksjW3ro7n42lNk7z3JVWy0fumcscxuG8RZJc1GTID98wveL2NdRHrIB+Q+/RR5btqide4jbtviQOuYsJWsTgrH0FZFUfYeys7dnKXP3lRK4T+W0oCZWYlL3RbXGP8zVieE4viwgOzcQ5y5sd195Dy9nfevju/lxw6kLQ5CHVdfcf7mCSb3cc6PLKmbb/y/YrVidXeK1cM7Vp/I30D206U0AFgWkvrtcnY+vfVGe7I3VXI45ykO1oE1aT2Z3WaJtKxYS9JUA/YP95G9t9R14w7O42MP29+rB3M0iUvcbd1G07ECTn0GGE2E9MgMODCMM9BUluf3JBpxWTy1JBJDwxG2P5tHyYfOW+GrF0opzP4pBVU2rEnryYo3dVtwEZlPxBA0rpGyjTkc7rgxA2fsebGYmjYD1phlbtsDRJK+OoUoUyMn/mkDhZ32c8lrG3h6/wWY4HbBnoY4zve7HVfvIzf7Kd5vArib+FUzuLj/pzyTe4jTTTac8WcrJTUODBELSXXXjn2I8wOvY3yM8xD79HqSrc2UbO90XrM3cvqtHLL3VnF1cgzpmzyc22BAcd63tohPcZ6wNDatmM/46nyezt5D2YXO+3o7JQ3u44c/4rwx/mckT6nn8KveP4DyRU1RjjPOZz/FutJ6119DSdm2idkX89mQvYeKy2C/cs2ZaLXbBnEG0W9hMACXG73rqetLHXfTr1mSH8wiNdpEw7Et5HRqD2V7N7CztBkMkzC15rJ143Ns3ZbveqBylPzsDRz8yAaMJ2rpo4wv28KaG8eXjaayfPLKmyE4hqSk7hv1NVbLSDRKEmmLSE8Ih7pSdrnrEVC3j5JqW+8nhPZqijbmuXnaU0pTC2A0M63HQqGkrFyIxWDjTHFOz2WnT3d1R51ESPcbDuNi0hPCMVyuZHeuu2B+nuI95bQYwklMW9ptliUTyWnO7dYe3+Pm9RobZZUXPJ4gLCuWMcfcypkD+9wvu6ucBvoIFg1HeCJ1+Y3/1mQ9R8HvPiYoPoMdr/4PMh8091jENN6ZUDAY3d/0VXzaDIQQ6uHmLPZ7oRiwYXP7ast5ine9S9MEI8E9PvPD8RG2iMTJ1RQ83elkcrnKeTP7oQ0M4Sx4fJGb5dJ4Mt7Aqf35fbwGNZhM3Lsmhtai5yjo9HriiZynyM7ZwIYcNzMfBVJbFYX/uMfNawyuthgUwuweC/lQx+ZvOS9wJ3yLnkctYL9AaxsYvjOVOT0+jCZ9aTRGGqko9tCO//Cx258JfmqLgN/q2GhminffHCBXPXmiWN2FYnU3itUBK5lb7dUU/aP7Y/Pw8Wrsbh5AmP/KeSNsuN1ttMXecAU7Btfrh+40UlLdCBPCmfVgt4+Mj3Lv3Y3UHPd3bwHnoORBjvOUePi9ZbveocZuZtbSVczqWijGGwAMGN3e2LtmVQwO7baca+kl6cSHGbB/dNTtgOj2snIutvXz5wxVnPelHXONmqIN5LtZ/r1LzYAJ89Tun/gQ532qY9/iPGErSZ5r5mrVG257zNvLfsn7DfT+8GIAcd7XtjjwOA8PPp6AlfO8t8vDObXEffy4YaBxnvmsfmwmTf+SS0kAp+k03pPJ3C/2sbWg01AlJ7ayIXsr2Ru2ciJwRevClzr2RfID0zHSTO2hnrG87thZWjBgmZ6Avel8pwRwVy1l292+IttU+zF2DJiDuyfEfYvVMjKNjkSaawaSpvPFHk9Uzgt/A5ZpCe6/cLnRQ5dpG9euA66uo12EPcJcqwFafk+Ju+7B537Hicrz1FW+w79060Vv/NE856wpHxZ7fj+/7h1qPgNDxDySu9ydPcRsqwHazlHR72g7g+RZodB2gVOepj12JQ4IDmeul7M72ZvOU1a0lWe2H6FhXAhzVuzs8STp8M71bM3ZwNb8Pp72ezhqL7bagBCmPOz+pM+lN8jbmk9Z97/74fgwBsOpAjcXZtgoK3b2lDHeE0dyl886uo+/SeEQTjHdUwjB7UfdXNC20lBd7/ZJZUD11RYnmAjq/pEvdVydx9bsrWzduJ3DvZVrnIEefctmxjEtGLhU7WH8kd74sy36qY7trVz09rsD4aqn3ihWd1Csdkexehjx2BaB8nM0OcBw53TiO/25Jv85snOeI3vnoV5XbRjnuf9O0xtVNGBi2rzFXf5uXDoD62fVHPf3a7nRjzD7TnDUfsBBT7/XfoQzFx0QfB+JXdrTIXZufI6c7OfI9344sxsS7wvHgI3aCj8mUYcozvt0TU4zjR5elbd/fQ0wYe5+s+tDnPetjn2J8x2z5dq4WOUp+Nho+NwVU6Pd9IZzV1Qv4ryvbXHAcb5j5s2mc573dXkjLfSMHx0GFuchYlUKs9re5dcehn8YKsF32Tjhpkfc1QtejvE2RAZex74xGgzQ9hm17o6PSzbn0CuT7u5lDddoueDh+sU1e605+L5uH/gWq2VkGhVjpHVkzFsbevlSwxXshPfR8PopLpxgwN5Y7WFMkfOU5D2HuwmwEmc6L46aant7ctpI7Sc24u+8m8iHgLdcf46ZSrABaGocQPCKJjQYaOitW+9JGi9nMmuimeDvA/0ZQ6BuH7vKY9iREMKspDQs5Z3G0LE3Ulft+n9jKHMWLGTurBlMCbubYJPB2d24F01F71IXl0JU6m5eXXCWD0uPUvKeq8svADaa3AzY44/jw1Fz1PMN1qVKLrYswhIcyrR46KiUG93HfzY03cc9a+ZU4ZHAlOGac5DRoG9PxdM4Gf7gax1fvXD2xk1q0NQEFiTGMHvq3ViCJ2Gc4Dow3T31nxnqjAEt5wawf/3ZFn2s45mTnD2p2m2DOh16Rz31SrHaRbHaLcXqweH3WN2MrR03ie1WGqo7BhE3Y01IIDH6+0wLCyV4ogmD6zXFXveB/U0+rFuEddo8kjniegBiIvnecJpq8vwew6JiwwkCmi6V9vq99y41kxIVimXWDCg/e7O4TedvxB2jJYYFC+YxKyqcUEsIRoPh5gDvPcQw5TsG4GMa/XGnOsRx/la6Jvepjn2K8zArNASop7GX+F3xaTMZhLtu/vvRPnuL8z62xYHGeeKmYzH09Rq58yGR1d2DMQYW54lYyeo4qPhHd70Gh1bLBwUB7RHH5FBioc/XOwdcxz6yOxww8U6mGaGi+34yGpzjDdqu+H+7A47VMlKNikSa9dvOJzSzMg6wP2MIN+x6Gm+z93/cEqPBAFy7kRn3xHEdwICh80Oo8T4EkTjnjb9zPIXFfX17QJqq67maEEKQdQbxRijuFAQ7ZjSaE2Z2zt700Vk+/O2bnPnoHDWxm9if1MtrX/ZDbH26mfRn0nlw6gziH59B/ONw9VKVxxl+wD/Hh6P9Si8X9mdptUPXJ6Qd3cdXB/ZkCYAN26APnO1BZTOtQJBrDAXvJxzoH9/ruOvsQPaWempr3qXo9bPU/imE1Jcz3Xfl7ogBrfXuPu2dX9uij3UcZsZMP8eyG4COeuqwv+jAoG7vBsVqtxSrQbHaZYhiNdB1pj5stDSco+a9fRTWnONiSBovZ0T3sQIbB39fT1JEOLOXwOG3AOMjRFoaqdnl/0GgzRNcMzF/3ftDAGdPKTBN6N57o2M2xhgsZueMzrU1VZQcqeIPtWeJXX+AJKu7Nbpu3Npt/umNOMRx/la6Jvepjn2J88x3zpZLOElFB+gxbJMf9BbnfWqLA4zzWF0J3ehM9hdlDug39T/Oh5Ly5EIMp3IpCHQWDbC3B2qw+nO0tC7GavqWd69jDrSOfXT8g3MkRcxgVmokFHTtWWZZOp1gbNR+cGQQtjzQWC0j1ahIpDnZOJP/JLlDMANLd/bWs31/aRA42n3Ixjcc4YmNgzT7V8cFOSGEzqXTU3/nDD3BY1up+c1W8rpPQd5jFHg3Lp+kMPskhZOjSfrxQ8THRGMJiyZp3W4Sl5+k8Dl3YyfBQI+Phs9tYDVhNPfzKX1cHFFmA8blv2L/8l6+1/kmua2K/DU53g0Aest4l4ufLcY6OYRpDPLN2YBjgGu2rAgTjkul5G/Ip6JL1/qQPtfg00XRYLZFL1ksIRhw0PCnwes1eNPNG5UnUntrHP6nWN2NYrVi9Q1DFKtds9BGGB00leWx4bWTXZNEfYdbp7c+oHZxJNPuS8H4VjH8aAbWlmp2ByoR6dHNGX8Nl89ycFtuj9kE+2xOjmv443Z1qOO8rsn7o56S1EGaqdFDnPdLWxxwnAd7VR5rcvt3LA44zrOQe6caCJ66kf29NbiJ0WQUHcCZ/x3EOgmYSmqbHMyJMmOZCVT3uYBPdTxQ9pJciqJeYVXCejZ+XkBh51lsE8Ohrpg8vw8k54dYLSPOqEikOQPreEzfCcz2g++aT39fhbA7vJmrvIMDh5uHZMaBvIJR3khLRjTWoXjq3O2p/9rU+QQbbJx57SlyPYx94bXLVZTsraJkr3Ma5tSkBGaFzSf951do3Nh1oFhfjo+KpmYyosNhYm/7y8T4sQAObB0JmPIc1vR2ARm3kdcyojEOgyTK4Gqk4k/NxN8ZTlQSHHb3ToUf+FLHlsdXkRRhwnHpKNufHViX/4HEgKFti70xEf8956sl548N7pY66ilQFKs9Uaz2SLHaj0JJWbnYeeN+bAvP+jQ76hFO1T5K1D0zSDKaYGY4LTW7BuWVxdZ2G+Dd2FQAtvZOaa+4n5EaG4KhrYqCDe7GdPLCxElY6fs1rN4NfZy/la7JfapjlwHF+Ruv55swe3IylAcAABteSURBVJvYGLBuPbT81hbpV5zveK3XcIe3WfObBhzn2Ud2am/xO41tRYuxjsiHJF2V/KGeZVGRTIsJhep+PATuTx37yhhDVKiBq+fOYUrMZMdy13gS7a00VOxh12tH/T8Egj9itYw4o2KygQ9dg5YGhc4Y2g3XNnMV58mz93GeTcQvX9plVrVTF52zDgVP7e3EbWJasAlo5uLpTn92DcLZ6xTmHmveNTi1OcTNzHZ+0jEOR+cxMpIWEjUR+KySogHdmC0i6/kMNzPTOadhzn32pxR8aMNgjeNH3SYY8un4KD/nvDAPDmeuh6m04T6CzQBXaBnUiyA3xvY+pfpwUFNRz1UMTJnlbgYl/xh4HYeS9P1wDDioLRtAEs0VAwwTJnn8inGcp8TRELRFbxgf5V4rOOp+z+FBvnDoqKchp1jtnmL10Bltsdo4neCJQEvjzUk6OgaDbz9Hma837sCJk+ewG8K5d/Ej3Gv9mA/fGJzXpWo+asYOBFs8DYzvFG8JAWy0fHSzR1RS/EyMQMupfQO4MTtJYwuACZPHY9rLBxMBiPO30jW5L3XsW5x3JR6ZREhEr5seOHdx3ue2OPA4z7+5JhIICutjNnI3FOd9d+wsDQ4IvmeR5+MV8KmOfRS7No3YifW8vTWH7LWpN2ekXbGa7NeODsoYd77FahmpRkUizV7mDKzB34ujt/NQbNb/YLPHqbYHoLKU2suAZTpJvZ21I9JImjOpS9f8pjcqqXOAZeZPPAeysJ8QFQaOuspuMwK+S20TcGc48R62O2u2pwuJk3x40Tk1dNTDvdwYhqWxLTez/yc5wDLXOeArjkZqO570TzY5Ty5eD3JrwjI1tNNvMGKyziDWYwXbKKs8hx0Dhm7XlT4dH5fe4FSdAwhl7lIPY0WEzcQyEWg5T4XfXiupvzHGg+cLaJg1+24cn/7eXxsdHFXFvN/gwHhPHMu8nFmwvwZex+GYjQDXcLibTMCdyeFYJ7v+v/IsjXYwhM3w0OXbRNL3PD11Hfy26A3LT6KxYqP2Xz3PsNaZMT6Tl/YeYP/+3WTGe/8EH27WU18Uq0Gx2jPF6kHS31g91uAxYWH5yUwswNUL5Td7jUwxO/v89ONVxaCp4T1nae5QfoyaywYiHl5KRNPZwUsQnThCzWUwRsbxoMcvLSI20gSXz1LS6ZWjIJPzttrr1/+NoVgtN9t72YVGIIQpnmJtdDRTJva92v7G+Q77i4rY9nhkP5a4Na/Jfalj3+I8VHxYjx0D1nsX95IADCUl5xUyZnr8gkdu47zPbXHgcR67a38FR/ayPBC3kZeeX9r1b4rzvrMXc7zaBpZ5LO91OEof6tgfjDNI3/srXtrxIhvXrSQ9dTFzZkZiGaT7CF9jtYxMoyKRxqU9HD7VCnfG8aSHE74xfiOpYed5+y23Hw9QFQcq6nEYIklcl+D+BGhMIOuZaFpK3uh6U2Iv5tfH63FYFrLWbZnNJKXHYXHUc3xf9wufRg6UnsVOOPevmd9z0YiVpM404QAY2zO6nXi9lAaHgaikn3k46UeSsjYBx/sF/X+dyLiY9NhQAK5++DvXbFrAp87pirkz3P0FjnEGyVM6JxzuIzX1EW4O59qMrT2E2JVpHi/MjGGTMNJKS/d53X06PmwcfLuSFiAoOo10NxuPfSyGYBzUvTeA/eVRIyXVzgvoqGT3Zzrj3EzSo5qpOBTYabz71khxSTV2QySxqf27IPfagOu4npY2ABOWKPfLBcV+H8uETn9ISiN1Xsc/jnLgg2aYOJOk1FA32/wZsa6BSQ3jep5wB7UtemU+qTGh8FklB7wcbyJxYQzBE4BxZuYsXdW/BE5HPfVCsfomxWo3yypWD6J+xuqwODIf7j6wPhCRxtr4UHCc5/juTlPrXXSO1cTEu4lye3CYiZ1xd5ceHUmpadzvsQBVHP+oGcZBwx/eHMTZTqvYfaCKq8YZ/DjLXfwwEbVmMVHGVs4cyL/ZAw9o+cJZ55Yp7pMkxqilTJnc6Q/fTyM16eY+bXrjXWrsYI3NcPOwJpL0x2ZgdL197rknTP/j/E0GrInpJPdnkVvxmtyHOvY1znOigPcuODBEPcJaDwnTiMczWeD4Vwr728PKU5z3uS36EOdppPBwJVfpZXljAlmP3U3t24e6faA47w8VvymlwWEmKqm35K0vdexj+XK3c7C6FSaYCA4LJyp2EQ8+nEbmxhfYUXCA/ft/xY6spUT5Manma6yWkWmc2TxpS6AL4clf/ZX/UtiXPjjHuFmxxMQsJC7SRHtTAw1X2mFyOPEpm1j/yO2U/7dtnLjcbcGIWB7+j+GYxtm4XHqShu7D4RhjWPhwLJbbHbT8sYzTLV2/0FZdQet3Y4meu4DE+77D9bZPaGxqw4EZa8J/Yv1/XcZd5/ex/Y3zdF/15f+vgta/XkjCgr8lLvwbPr/4Z5raHARNTeAn//VZkr/n4PSejRT8vucYPY7a07T99QJi595PXPg3fPrRH/nsSxOW+DSe/S/zuPz+OcwR38V411wW/2gBlk9LON2RZP/iDB9csTAvJoa4h+by7a++4NPGRtocJixzF7Pm2bX8zaf/zNa9PcscdN8PSZrxbcb9pYVz5ZXc2B3GUOYkPs7aZ37MNCPY6w7xUk4JN3b3hU+YeN8DTAv+LvfM+Q6tZ/9IQ5uDoKkxLPy7tWSuWkTYOAemb03AfqGECsfDJP4/DRz+144u599lblIsYXdN5/4HojBe+4TLn31OmwNnHS/JZO3fTuerM78m72h9j3IP+PgA+KSSP42dzX+4N5zpP7ifuxzN1NZ+wl8mR5O08lke/w938FlpHtuLem7XLWMoD/7d3zH3zvEwzsH1C6c519JzybbfX2DCfQ8w+29iuxwfN8q85LvU/HorxXWethrJvIcXMuVbY7j6cSmVjf0Z66mTjjbSvc7748+/p+17icTNmc6EfzvO2S962c4A2+LA6riN2r9YeeC+u5kc/n3uud5I9Uef8BdjKBFxS1jxX57miXm30/7NHZi++YQzvz3L7CUPwLFSqly/4XJVHRPuW8DcmAV8P+gLPjpXT5vDzKwlT/PMkkmc+j9fMG3KJCaG/4jFi6MxHC69eXHnQ1t08q2OI1Y9y2P32Kj4n1v5fz9x/50n278C4Fe3Oy+p7/mPjxI12TUHuP3PnDzqvKj11qUPzvFk+2cA/M3zKxWrFat7HB+K1cM8VjOLhEenY/6sEfusR0n4zhf8qaGeq1+62lLGj7COa6Zi7y94vfNv/uI8jr9eQHTot5lyXxTXG89w7tN2jJZIYhf/Z9auW8E8UzvXJ5rgs9/z2z/ex6P3j6Hkf53GU4fhlk+sxCXChztKONuv32tiZsISZgaP498vvEvZufZev+1oOMn52+eS8EAiiffdQdvFehqutGO0xJC0JosVP5jExyXb2Xbk0y7LXfj0Dr7/g+lM/m4U3//OFWr+6Dw/WGMSWb5qPSsWWTF8ZcI0wU7D78px/O0i7vn4ECdrOzZ8nqqrVh74QQwxCyLg07OufZZA6rPrmHu5nNqgCO6a+F2if7SEuLCPOfZ/uvao8CbOd9cR9794PBWuf07N26Wc83KZX91u8KEdd7SF8dj/73EqegR6E3MWLmFe6AQcn/6R8tPNXdqyL3F+oHUMPsZ52jj7wRXu+sE85j6wiO9/52u++KSRpjaHa9ubWP03zbz+i910DyEDjvM+t0Xf4jx/ruD82NnMmxfLggeiMF77M5fqW/lLRz1tWMaEkzt48djnPfa13+M8ZmatSiEx/A7GjR2Ho7mC05d6xgPf4zxE/ODHLJhiYkzrn3nvg0Yvy9d9JX6I81+c4c9B97PgBzMJbT5C5Z/dfcnHOu7CTHTiI0R9x5t4ayJ+3c95LOIT3srdQM7/fJvKs2c4/b//yGf2Nhxfw3VDCJbwmcybcTunSs90Oj/cjOvXL1dz4kzP4yfoB4+QdM8kxn1Rz3tlf+Qvrr/7HKv97C/XBngdIH41xjpl6jeBLoQnd0z0d5dI57S1qQkzsAa71v21g6tNVZTszqWk20vVsVm/IiO6axkaSpaT/brrH4+/yP6k8C6fe5plJih2JU89Fod1ssk5XTnOaXPPHCtgd/cZz7qX+aE0lifFEHGjzDZa6iop+XU+J3p9Ebxjmt5oLGZXl9SWsxx/LZeD387g1ZQQ/nD8KGV1H9P6p/M0dS/E5Pmkr1nG3HtCCXI9dnK0NdNQsY+dhZVdy9wx4HJvxfnagf1yPadKiik65u43m4ldsZ5lsZEEd6zIYaPlQiUlB/Zx4mIMGS+sIvZOA7Sd5/DO5zjY6fenPL+b2V9UUdMeQlTU9Bu/Gfqxr/txfHRnjFrK6vQfMstivlHH9pbzVPxmJ4XeTAHt5njqrMux12uZbbTUlXPwv+/pNrsk3BgwtbdyeDFodkpO31M8uy9vL4wJZOVmEPV/i1n3i0Nd6sl/bXFgdeyubh2tjdScPMjuopMEL3+B9Y9EYhznoKWigOxXS7sdZ92O7a8dXG0q5+0d+ZxIepHXZtuoKD3KqUvNNFbXd50ZC/rXFv1Ux0SsZMfPF2E4lcMzr1Z5/Np7V74EYMGk2537Kj6TbenOwejr3tnO1gP9H1+lY50n9/1GsVqx2uP+UqwefrHayVX2hiM8sfMC6c+kE2917euvHVxteJeil9z9ZnDXFpx1W837h/Mprghh2eZNJE83QXszFYUbyO9trL6kzbwWV8/TG/f13SPNm7bRx2DjQbFprE6OI8rS6fc2VfPewV9y8JSHck6eT/rfpxAbEYKxI+a0NdNQdYQD+49yca4rpk4A+7lD7Nxa3GMMoB7HtL2ZmuP55P3GzOpX0wn+6HccLztP4+f11DV1KoeXcb67jhh96XdveTjneV6m41zR73bsrn66tAE3bcZDfQ08zg+wjjv93gHHeczErsgkeU6nmOmw0XKhnKKdezjd+ft+ifO+tUXf47zruE5dSJS1U9tobeRMyS7yftv7tYXPcb6Pfej9NWZvcd6bGN337KCDEueJJCVnC0nGSnIz87r1snRt16c6HuA5LvkF9j4WSu3eJ8nx2IM2lJScnSRZP+607/qKD/PJei2TWV1ehe+27/0Qq/3li7bh37NxNBhliTQRGdYi0tj280VwfAvZr/s+2LQMVCSrXn6B2PYjbO9jtqWeN0e+G4x1iogf9RqrOyXSAjqTqYllz+9m9vnVZL+um46evI/z3Q0kRiuui9xiXA9NplzIZ0Nu38nyoeB8cNrcZ3LR2+/dqpRIGx5GxxhpInJrqNvH9r3VmB9aT1Y/B6oXfzERn7We2LEnKfxHP09ZLiIjwzCN1UGxS0l5aIazF0nYT5h7dz2nboExiYae4ryI9MFeSu5LR2iduYpN/ZxUZLBcvNwK3M3s9N7KE0lUqAkuNw/S+MEiTkqkiciwYi/L4bnCC0xJ8jyAqQyi+AySQ89SuDFPU3yLiEceY3WEyZnImhzOg5PdLzs40li/LoWk9E1s25hBZmYcjtLCwZut81amOC8i3qjbx/Yd70JsCkmBLgvQtHcXJRfA8tAWXtqYRvz0TrOCTw5nTtJKNr68hfjJzVT0mPhDxL/0aqeIiAyYXu0UkQ5ux+oZslc8o0nfkcWDYQb4upWGEwVs7zGGpPiDXu0UkcC5OSZt53EOwTlmWVNtJSV793kYh3Nk0Kudw4MSaSIiMmAdN0eDQTdcIiLDjxJpIiKBo0Ta8KBXO0VERERERERERLxwW6ALICIit65bpXdBrOM6623XmPTNsO2ELSLSL1fGjGGnaTwVhsA8Fx/MHskiIiLD2YhKpOlGSUSkfwJ9IzZUdG4QkZFm0jffsN52jSXmCYEuioiIyKgyohJpulESEekf3YiJiEh/3Co9kUVERAbLyO6CICIiAuw0jefKmDGBLoaIiN909CgWERGRoTWiZu3Uq50iIv0zWl7tFBERERG51WnWzuFhRCXSRERERERk9NEDdREZDS4Dz4/9hn8dq1gXSOqCICIiIiIitzQl0URkNJgM/OK6hisJNCXSREREREREREREvKBEmoiIiIiI3NI0qYyIjAYdr3ZKYGmMNBERERERERGRYU6TDQwP6pEmIiIiIiIiIiLiBSXSREREREREREREvKBEmoiIiIiIiIiIiBeUSBMREREREREREfGCEmkiIiIiIiIiIiJeUCJNRERERERERETEC0qkjUBz1r3CjlUxGANdEBERERERERGREUSJtBHo9N53aInOZNPjkYEuioiIiIiIiIjIiKFE2khkLyX3pXcxJK4nK94U6NKIiIiIiIiIiIwISqSNVHV72F1qI2rFZlIiAl0YEREREREREZFbnxJpI1hd4S4qLoeTuHolyqWJiIiIiIiIiPhmdCbSlrzAS1nzA12KIXCegn85iyNsIf9piV7xFBERERERERHxxahMpBnvMDFq0konCqhoMhCx6GfEBrosIiIiIiIiIiK3sFGZSEv8XkigizCEGjnwYT1MnEni8lGTPhQRERERERER8bvRl0iLyCA+whDoUgwp+6GzNGDAOvMRjIEujIiIiIiIiIjILWoUJdJMWOJXsu0fEgju13JmZi3ZyEub03pf746s4fvqpL2KxhYwWGeQGOiyiIiIiIiIiIjcom4LdAGGQkrOAZKsXf9mjM5kf1Fmp7/YOJP/JLnlHf+eT9Zrmcya6PpnQ2OP9cZm/YqMaNfrkm1V3T6NJin9PoIZT/CUcIInh2AxnCN/bQ4VgDFqKavTf8icMDMA9qaTFP0ijzK7mx8weT7pf59CbEQIxnHA1w6uNlXz/uF8iitavdgDZ2locRAbHMKUGKDSi0VERERERERERKSLUZFIK964nOKOf8Rt5LWMaKjKY03uyV6WOknumpMYY7J4MTOGIDffqMh9korJKWx7eSnWHp+GYJ02nVCACSFYgk3Q5vzEGJ/Fi0+Ec/FIHmsOj2f1qxuZY5nP8jUfUPZy1yyXMT6TbSvmY7p0lKLNb1J2oZWgqQn8eEUaSet2ce/ULWS/fr7PfXCx9QoQQvA0lEgTERERERERERmAUZFI84W9splWcJtIA+DyJVrbcZNIO0p+9lHX/7t6twHEZfHichMl//RTSuoAQmltd37LdvXjrqsIS2PTivmMr87n6dxSOjqrXb1QSmH2x1zL2UJS0noyG1aTV06valptABgnhAI9e9eJiIiIiIiIiEjvlEgbUpNIWganXtngSqIBNFL4i6d4PwyaznVNcD34eAJWznN4180k2k3nKS6pZkFGNLMSl0L5Ia9KYDKHo0SaiIiIiIiIiEj/jaLJBoaBieEYqwsorOv2d3sjdecauyXLlnL/PSZoOsdBd+OmAZQ30gIY7pxOvJdFsLXW97PQIiIiIiIiIiICSqQNrfaznCjoezwzAOKmYzGA/fMLvXzpAq1twMRJWPpYXZTZOSmCvV290UREREREREREBkKvdg4lxzW8mWMTAOskjAA9ZhcdmCnmSYCN1gafVyUiIiIiIiIiMiopkTbM2fucXdQboVi+bQBHPbV9TEogIiIiIiIiIiLu6dXO4arhCnbAcEeI7+syLmTKnUDTOY77vjYRERERERERkVFJibTh6t9cEwkEhRHl46qMS2dgxUFd1ZtuZv8UERERERERERFvjL5E2sVWbB4+ilr3Apkx/Vxf2HSCJ/paKDfs71LbBARHEhvRy/fiNvLS80t7+UIoy2eHg/0c7x/w9MtFRERERERERKQvoy+RduljWtrB+O2pzsH8b5hP0pRr/KGy+wJVNLYAd4aTZOz+mYn4lHk3Zsw0+LWgjRQeruQqIcSuTMNtLs2YQNZjd1P79iHPq4lLI9YCLR8Uc8Kv5RMRERERERERGV1GXyKNI5TV2MAaR+aSaIIAJkeT8nw65g/dJZvOcriyHseEGSRvWkm8xQRA0NQE0re9wvLbz1LTBkyMZlVhES+tc9OlzTgJgwGYMAnL5H4UtTyXV946j8O6mE15m0lJCHeWFzPWhJVs++UqzB/kkV/laQWRrFoajbHlJIUF5/uxYRERERERERER6W6MdcrUbwJdCE/umGgapDVHsmxjJolRIRjHAY5WGkoL2F5Y6WEMMRNz0jfzZEI4Qa5uZ47WRmpOHmR3Eax+dRXBF0spOVZF4+f11DXZIG4jr2VE06MTWyfezshpjFrK6tSFRFld5XVt/0zJLvJ+6zlBFpH+CpseMnAq96e9JNtEREREREREZLj7ok3DNQ0HozSRNgpEZPDS83HYS7aQ/bp6o4mIiIiIiIjcypRIGx5G4audo4Axgaxn4qCigO1KoomIiIiIiIiI+IUSaSNQ/JpHsdQUkP1qqYdXVUVEREREREREpL/0aqeIiIiIiIiIyDCnVzuHB/VIExERERERERER8YISaSIiIiIiIiIiIl5QIk1ERERERERERMQLtwW6AIMt1nGd9bZrTPpm2A4FN2xcGTOGnabxVBiUXxURERERERER6W7EZ0yURPPepG++Yb3tWqCLISIiIiIiIiIyLI34RJqIiIiIiIiIiIg/jPhE2k7TeK6MGRPoYtwSOl7tFBERERERERGRnkb8GGkVhrEsMU8IdDFEREREREREROQWN+J7pImIiIiIiIiIiPiDEmkiIiIiIiIiIiJeUCJNRERERERERETEC0qkiYiIiIiIiIiIeEGJNBERERERERERES8okSYiIiIiIiIiIuIFJdJERERERERERES8oESaiIiIiIiIiIiIF5RIExERERERERER8YISaSIiIiIiIiIiIl5QIk1ERERERERERMQLSqSJiIiIiIiIiIh4YVgn0q5/802giyAiIiIiIiIiElDKjwwfwzqR9pXDEegiiIiIiIiIiIgElPIjw8ewTqRdu/ZVoIsgIiIiIiIiIhJQyo8MH8M6kXb9m2+wf/lloIshIiIiIiIiIhIQ9i+/1Kudw8htgS5AX7766jr/bvuSvxp/GwaDIdDFEREREREREREZdA6Hg79c+4rr168HuijSybBPpAFcv36dL9uv0f6Xa4EuioiIiIiIiIjIoFMntOHplkikddBBJCIiIiIiIiIigTKsx0gTEREREREREREZLpRIExERERERERER8YISaSIiIiIiIiIiIl5QIk1ERERERERERMQLSqSJiIiIiIiIiIh4QYk0ERERERERERERLyiRJiIiIiIiIiIi4gUl0kRERERERERERLygRJqIiIiIiIiIiIgXlEgTERERERERERHxghJpIiIiIiIiIiIiXlAiTURERERERERExAtKpImIiIiIiIiIiHhBiTQREREREREREREvKJEmIiIiIiIiIiLiBSXSREREREREREREvKBEmoiIiIiIiIiIiBf+fzeg9+dU6dwjAAAAAElFTkSuQmCC;" vertex="1" parent="1">
                    <mxGeometry x="109" y="960" width="691" height="91.83" as="geometry"/>
                </mxCell>
            </root>
        </mxGraphModel>
    </diagram>
</mxfile>